<?xml version="1.0" encoding="UTF-8"?>
<svg version="1.1" xmlns="http://www.w3.org/2000/svg" width="500" height="500">
<path d="M0 0 C7.7563887 7.28892777 8.6082134 14.68295278 9 25 C9.01749762 31.32663926 8.88353623 37.65088026 8.69726562 43.97460938 C8.67986328 45.21146484 8.66246094 46.44832031 8.64453125 47.72265625 C8.61721924 48.83390869 8.58990723 49.94516113 8.56176758 51.09008789 C9.10199504 54.67725842 10.1231524 55.85504809 13 58 C15.67975596 58.01453953 15.67975596 58.01453953 18 57 C19.3108889 54.37822221 19.16083707 52.38475366 19.20532227 49.44873047 C19.22526749 48.28767792 19.24521271 47.12662537 19.26576233 45.9303894 C19.28247482 44.67203278 19.29918732 43.41367615 19.31640625 42.1171875 C19.33718735 40.83264679 19.35796844 39.54810608 19.37937927 38.22463989 C19.43459049 34.80850641 19.48400388 31.39231255 19.53222656 27.97607422 C19.58244857 24.49050519 19.63813097 21.00502391 19.69335938 17.51953125 C19.8009293 10.67976195 19.9018723 3.83991122 20 -3 C26.27 -3.33 32.54 -3.66 39 -4 C39.495 4.91 39.495 4.91 40 14 C43.39168819 10.63301266 43.39168819 10.63301266 46.66796875 7.15625 C54.25869297 -1.11744426 63.6727703 -4.31321817 74.65234375 -5.21875 C86.7088164 -5.63389397 97.82810857 -2.32560825 106.953125 5.72265625 C108.34915687 7.10237933 109.68313869 8.54452171 111 10 C111.33 5.71 111.66 1.42 112 -3 C132.13 -3 152.26 -3 173 -3 C173.33 -1.35 173.66 0.3 174 2 C174.928125 1.360625 175.85625 0.72125 176.8125 0.0625 C180.40624802 -2.26286637 182.82438727 -3.12673695 187.01245117 -3.11352539 C187.81305466 -3.11344986 188.61365814 -3.11337433 189.43852234 -3.11329651 C190.72772331 -3.10555458 190.72772331 -3.10555458 192.04296875 -3.09765625 C192.9265657 -3.0962413 193.81016266 -3.09482635 194.72053528 -3.09336853 C197.54289128 -3.08777069 200.36516797 -3.07521861 203.1875 -3.0625 C205.10091031 -3.05748472 207.01432187 -3.05292186 208.92773438 -3.04882812 C213.61852014 -3.03780197 218.30924663 -3.02053883 223 -3 C223 2.28 223 7.56 223 13 C220.65261719 13.06058594 218.30523437 13.12117188 215.88671875 13.18359375 C213.61300502 13.24540412 211.33934005 13.30878311 209.06567383 13.37231445 C207.48563985 13.41562305 205.90556031 13.45730106 204.32543945 13.49731445 C202.05405952 13.55511583 199.78290811 13.6187816 197.51171875 13.68359375 C196.80536789 13.70030624 196.09901703 13.71701874 195.3712616 13.73423767 C192.3335176 13.8259747 189.90376942 14.03207686 187 15 C186.9175 16.258125 186.835 17.51625 186.75 18.8125 C186.70359375 19.52019531 186.6571875 20.22789062 186.609375 20.95703125 C186.82506859 23.13208828 186.82506859 23.13208828 188.63305664 24.61157227 C191.69550607 26.40797762 193.72543805 26.32853295 197.26171875 26.2578125 C198.46248047 26.24363281 199.66324219 26.22945312 200.90039062 26.21484375 C202.77500977 26.17037109 202.77500977 26.17037109 204.6875 26.125 C207.17050545 26.08186143 209.65358197 26.04257909 212.13671875 26.0078125 C213.23717529 25.98348145 214.33763184 25.95915039 215.47143555 25.93408203 C218 26 218 26 219 27 C219.07319621 29.69654854 219.09242537 32.36691458 219.0625 35.0625 C219.05798828 35.82111328 219.05347656 36.57972656 219.04882812 37.36132812 C219.0370068 39.24091871 219.01907078 41.12046899 219 43 C217.75911621 43.01401855 217.75911621 43.01401855 216.49316406 43.02832031 C212.74483585 43.08200319 208.99775838 43.1656571 205.25 43.25 C203.94804687 43.26417969 202.64609375 43.27835938 201.3046875 43.29296875 C200.05429687 43.32519531 198.80390625 43.35742188 197.515625 43.390625 C195.78747559 43.4220459 195.78747559 43.4220459 194.02441406 43.45410156 C190.3930732 44.10954862 189.15159135 45.03643749 187 48 C186.91083846 51.62649951 186.91083846 51.62649951 188 55 C191.55603368 57.37068912 194.17993345 57.34465108 198.29296875 57.4140625 C199.35201164 57.44311172 199.35201164 57.44311172 200.43244934 57.4727478 C202.68401061 57.53245224 204.93562328 57.5788914 207.1875 57.625 C208.71551689 57.66318829 210.24351245 57.70224052 211.77148438 57.7421875 C215.51421092 57.83977081 219.25671463 57.91940802 223 58 C223 63.28 223 68.56 223 74 C217.44992205 74.09938156 211.90036982 74.1717096 206.34960938 74.21972656 C204.46410084 74.23975767 202.57865377 74.26699073 200.69335938 74.30175781 C197.97250138 74.35065272 195.25246944 74.37305382 192.53125 74.390625 C191.28075867 74.42159271 191.28075867 74.42159271 190.00500488 74.45318604 C183.28810818 74.45572199 178.09831666 72.67364391 172.9765625 68.25390625 C172.53054688 67.69574219 172.08453125 67.13757813 171.625 66.5625 C170.93277344 65.72912109 170.93277344 65.72912109 170.2265625 64.87890625 C166.1638663 58.65547672 166.39263381 52.20680781 167 45 C168.375 41.375 168.375 41.375 170 39 C172.25875296 36.32196616 172.25875296 36.32196616 171.75 34.0390625 C170.9996467 31.99903947 170.08756634 30.25425065 169 28.375 C166.53440145 23.64033611 166.29389549 19.29011878 166 14 C159.565 13.505 159.565 13.505 153 13 C152.97512829 17.98046512 152.95705919 22.96089342 152.94506836 27.94140625 C152.94006513 29.63281891 152.93326048 31.32422731 152.92456055 33.015625 C152.91231815 35.45834411 152.90673145 37.90100562 152.90234375 40.34375 C152.89718246 41.08991577 152.89202118 41.83608154 152.88670349 42.6048584 C152.88619138 47.48755973 153.30964954 52.16515799 154 57 C157.3 57.33 160.6 57.66 164 58 C164 63.28 164 68.56 164 74 C146.68520556 74.61838552 146.68520556 74.61838552 141 70 C136.76250339 65.98152007 133.30637163 61.85017402 132.82601929 55.81358337 C132.76861141 53.09618367 132.77541796 50.38582389 132.8046875 47.66796875 C132.8075174 46.67622147 132.81034729 45.68447418 132.81326294 44.66267395 C132.82443196 41.50415841 132.84953073 38.34592943 132.875 35.1875 C132.88503403 33.04232181 132.89415914 30.89713917 132.90234375 28.75195312 C132.92436061 23.50119216 132.9588681 18.25064462 133 13 C126.73 13.33 120.46 13.66 114 14 C114.639375 15.505625 115.27875 17.01125 115.9375 18.5625 C117.60451802 22.7565524 118.67033312 26.46708042 119 31 C119.0515625 31.66257813 119.103125 32.32515625 119.15625 33.0078125 C119.68764258 45.3626899 115.26501246 55.85734571 107.1875 65.06640625 C98.16043045 73.77376709 86.32581595 76.35039585 74.15625 76.21484375 C61.93173641 75.38272958 52.00728921 70.11398772 44 61 C41 57.41935484 41 57.41935484 41 55 C38.7734726 56.95331745 38.7734726 56.95331745 37.8125 60.125 C35.38220259 65.99208162 31.24240225 70.60971061 25.875 73.9375 C18.25033032 76.75531271 10.87419624 76.90865848 3.2421875 74.109375 C-2.85605605 71.09212558 -7.71023958 66.4652059 -10 60 C-10.92460085 54.74291382 -11.16011322 49.64483571 -11.2109375 44.328125 C-11.23897115 42.6783749 -11.26763529 41.02863541 -11.296875 39.37890625 C-11.33830946 36.80257072 -11.3752389 34.22644146 -11.40136719 31.64990234 C-11.42889377 29.14640692 -11.47471472 26.64378543 -11.5234375 24.140625 C-11.52669037 23.3687384 -11.52994324 22.59685181 -11.53329468 21.80157471 C-11.61153411 17.6609153 -11.61153411 17.6609153 -13.36181641 14.00292969 C-15.62557375 12.61701089 -17.4013878 12.78930171 -20 13 C-21.04126924 16.12380773 -21.15552332 18.38517854 -21.20532227 21.66479492 C-21.22526749 22.82577194 -21.24521271 23.98674896 -21.26576233 25.1829071 C-21.29083107 27.06270012 -21.29083107 27.06270012 -21.31640625 28.98046875 C-21.33718735 30.26359451 -21.35796844 31.54672028 -21.37937927 32.86872864 C-21.43451906 36.27662815 -21.48396389 39.68458741 -21.53222656 43.09259033 C-21.58250079 46.57154648 -21.63815591 50.05041607 -21.69335938 53.52929688 C-21.80084191 60.3527911 -21.9018114 67.17636577 -22 74 C-28.27 74 -34.54 74 -41 74 C-41.06793904 66.16749981 -41.12290983 58.33516241 -41.15543652 50.50244808 C-41.17105247 46.86488278 -41.19221541 43.22753058 -41.22631836 39.59008789 C-41.25905835 36.07578517 -41.27688359 32.56168665 -41.28463173 29.04724312 C-41.29282327 27.06259038 -41.31621919 25.07801909 -41.33988953 23.0934906 C-41.34144573 14.70968155 -40.58906944 9.77264404 -35.8125 2.8125 C-26.53296001 -6.46703999 -10.71976665 -7.96804083 0 0 Z M60.625 19.25 C55.70119457 25.55193575 55.19738288 33.23313586 56 41 C57.6747553 48.0046335 60.95058773 52.91220661 67.0625 56.8125 C72.98648525 59.89141338 78.91521671 60.24138575 85.30078125 58.30078125 C91.25202391 55.6445769 94.52151582 51.49812845 97.8125 45.9375 C100.19675257 39.70812333 100.02817377 32.47484655 98.15625 26.1484375 C95.45811682 20.11409911 91.73951132 16.25399073 86 13 C76.41865576 9.80621859 67.49599155 12.01476311 60.625 19.25 Z " fill="#04BC62" transform="translate(160,166)"/>
<path d="M0 0 C1.23750708 0.00138269 1.23750708 0.00138269 2.50001431 0.00279331 C3.44377422 0.00141865 4.38753414 0.00004398 5.35989285 -0.00137234 C6.40358028 0.00222294 7.44726772 0.00581821 8.52258205 0.00952244 C9.61512798 0.00937641 10.70767391 0.00923038 11.83332729 0.00907993 C15.46405899 0.00977961 19.09474012 0.01757454 22.72546291 0.02539158 C25.2351011 0.02725557 27.74473964 0.02867956 30.25437832 0.0296793 C36.1971526 0.03311435 42.1399105 0.0410051 48.08267635 0.05102879 C56.6955567 0.06524203 65.30844324 0.07050044 73.92133236 0.07683659 C85.99017229 0.08654926 98.0589644 0.10570477 110.12780666 0.12304783 C110.12780666 26.52304783 110.12780666 52.92304783 110.12780666 80.12304783 C72.83780666 80.12304783 35.54780666 80.12304783 -2.87219334 80.12304783 C-2.89281834 67.10867283 -2.91344334 54.09429783 -2.93469334 40.68554783 C-2.94379734 36.57029636 -2.95290134 32.4550449 -2.96228123 28.21508884 C-2.96679783 23.20495701 -2.96679783 23.20495701 -2.96763706 20.86241245 C-2.96917659 19.21995365 -2.97270168 17.577496 -2.9777689 15.93504429 C-2.9850466 13.45285154 -2.98610075 10.9707281 -2.98571873 8.48852634 C-2.98931684 7.75202382 -2.99291494 7.0155213 -2.99662209 6.25670052 C-2.98406246 0.19612419 -2.98406246 0.19612419 0 0 Z " fill="#BFFE72" transform="translate(221.87219333648682,256.8769521713257)"/>
<path d="M0 0 C1.2286528 -0.01283524 2.4573056 -0.02567047 3.72319031 -0.03889465 C5.05739941 -0.04706503 6.39161314 -0.05450819 7.72583008 -0.0612793 C8.40381464 -0.06535482 9.0817992 -0.06943035 9.78032875 -0.07362938 C13.37096469 -0.09443781 16.96156304 -0.10876045 20.55224609 -0.11816406 C24.23612775 -0.12920153 27.91940094 -0.16358471 31.60306835 -0.20333576 C34.45749431 -0.22964679 37.31177856 -0.23786872 40.16631508 -0.24144554 C42.17689797 -0.24860505 44.18738339 -0.27498036 46.19779968 -0.30183411 C55.16133909 -0.28076118 62.67862224 0.67612533 69.68286133 6.61450195 C70.38411133 7.46012695 71.08536133 8.30575195 71.80786133 9.17700195 C72.89067383 10.41450195 72.89067383 10.41450195 73.99536133 11.67700195 C78.07159264 17.29938997 79.22657041 23.60997144 78.59692383 30.4777832 C77.10297452 38.63812894 72.8417041 44.66034571 66.80786133 50.17700195 C69.66060498 56.91323909 69.66060498 56.91323909 75.21020508 61.0637207 C77.95367676 61.38051896 77.95367676 61.38051896 81.80786133 61.17700195 C81.80786133 66.45700195 81.80786133 71.73700195 81.80786133 77.17700195 C79.11925201 77.28587702 76.43512975 77.3647079 73.74536133 77.42700195 C72.99319336 77.46051758 72.24102539 77.4940332 71.46606445 77.52856445 C65.70995178 77.6282374 62.50302627 76.55614147 57.80786133 73.17700195 C54.37662002 69.6327735 52.79014619 65.92856645 50.87036133 61.42700195 C49.22621118 57.93084181 49.22621118 57.93084181 46.80786133 55.17700195 C42.13192794 53.68572881 38.80598841 53.91936654 33.80786133 54.17700195 C33.80786133 61.76700195 33.80786133 69.35700195 33.80786133 77.17700195 C28.16940626 77.26939357 22.53363162 77.34885848 16.89501953 77.39672852 C14.98151699 77.41670615 13.0680744 77.44389794 11.15478516 77.47875977 C-3.49643988 77.73881805 -15.50065324 77.247667 -26.81713867 66.73950195 C-35.59598394 57.26758995 -38.53726621 48.35427962 -38.40698242 35.52856445 C-37.73068708 24.97835707 -32.92544045 16.10578124 -25.35229492 8.84887695 C-17.68922271 2.91796392 -9.58593936 0.08754426 0 0 Z M-13.00463867 22.55200195 C-17.76566665 28.26523552 -19.37593468 33.81435028 -19.19213867 41.17700195 C-17.99522235 47.99250069 -15.97991038 53.39981699 -10.27416992 57.58325195 C-1.77350098 62.70928348 2.67598781 61.17700195 13.80786133 61.17700195 C13.80786133 46.32700195 13.80786133 31.47700195 13.80786133 16.17700195 C-1.79573917 15.59902287 -1.79573917 15.59902287 -13.00463867 22.55200195 Z M33.80786133 16.17700195 C33.80786133 23.43700195 33.80786133 30.69700195 33.80786133 38.17700195 C37.86067383 38.26981445 37.86067383 38.26981445 41.99536133 38.36450195 C42.83736084 38.39181396 43.67936035 38.41912598 44.546875 38.44726562 C50.18252481 38.50956391 53.41474711 37.40507381 57.62036133 33.48950195 C59.3772056 30.0682789 59.59006797 26.88181705 58.80786133 23.17700195 C57.05486838 20.15795855 54.97763731 17.76188995 51.80786133 16.17700195 C50.43237976 16.09391558 49.05300337 16.0696418 47.67504883 16.0793457 C46.94914551 16.08184326 46.22324219 16.08434082 45.4753418 16.08691406 C44.55382324 16.09601807 43.63230469 16.10512207 42.68286133 16.11450195 C38.28973633 16.14543945 38.28973633 16.14543945 33.80786133 16.17700195 Z " fill="#FDFDFD" transform="translate(126.192138671875,256.822998046875)"/>
<path d="M0 0 C1.07878418 0.05236816 2.15756836 0.10473633 3.26904297 0.15869141 C5.01894531 0.23603516 5.01894531 0.23603516 6.80419922 0.31494141 C8.02751953 0.37939453 9.25083984 0.44384766 10.51123047 0.51025391 C11.74228516 0.56697266 12.97333984 0.62369141 14.24169922 0.68212891 C17.29043853 0.82393073 20.33839435 0.97537364 23.38623047 1.13525391 C22.39623047 2.62025391 22.39623047 2.62025391 21.38623047 4.13525391 C20.39623047 3.80525391 19.40623047 3.47525391 18.38623047 3.13525391 C18.38623047 4.12525391 18.38623047 5.11525391 18.38623047 6.13525391 C25.31623047 6.46525391 32.24623047 6.79525391 39.38623047 7.13525391 C39.40685547 10.51775391 39.42748047 13.90025391 39.44873047 17.38525391 C39.45783447 18.44518555 39.46693848 19.50511719 39.47631836 20.59716797 C39.47881592 21.43989258 39.48131348 22.28261719 39.48388672 23.15087891 C39.48912354 24.0097168 39.49436035 24.86855469 39.49975586 25.75341797 C39.39163033 28.02196134 39.0220547 29.96157106 38.38623047 32.13525391 C39.04623047 32.13525391 39.70623047 32.13525391 40.38623047 32.13525391 C40.38623047 33.12525391 40.38623047 34.11525391 40.38623047 35.13525391 C41.1080249 35.13001709 41.82981934 35.12478027 42.57348633 35.11938477 C45.82355896 35.09868033 49.07361775 35.08561473 52.32373047 35.07275391 C53.46003906 35.064375 54.59634766 35.05599609 55.76708984 35.04736328 C56.84667969 35.04414063 57.92626953 35.04091797 59.03857422 35.03759766 C60.53892212 35.02974243 60.53892212 35.02974243 62.06958008 35.02172852 C64.38623047 35.13525391 64.38623047 35.13525391 65.38623047 36.13525391 C65.52880236 39.47143622 65.42851204 42.79500997 65.38623047 46.13525391 C69.01623047 46.13525391 72.64623047 46.13525391 76.38623047 46.13525391 C76.38623047 54.05525391 76.38623047 61.97525391 76.38623047 70.13525391 C71.43623047 70.13525391 66.48623047 70.13525391 61.38623047 70.13525391 C61.38623047 65.18525391 61.38623047 60.23525391 61.38623047 55.13525391 C52.47623047 55.13525391 43.56623047 55.13525391 34.38623047 55.13525391 C34.38623047 60.41525391 34.38623047 65.69525391 34.38623047 71.13525391 C28.94123047 71.63025391 28.94123047 71.63025391 23.38623047 72.13525391 C23.05623047 73.45525391 22.72623047 74.77525391 22.38623047 76.13525391 C21.38623047 77.13525391 21.38623047 77.13525391 18.88598633 77.2487793 C17.80196533 77.24354248 16.71794434 77.23830566 15.60107422 77.23291016 C13.84633789 77.22807617 13.84633789 77.22807617 12.05615234 77.22314453 C10.20860352 77.21057617 10.20860352 77.21057617 8.32373047 77.19775391 C6.47038086 77.19098633 6.47038086 77.19098633 4.57958984 77.18408203 C1.5150893 77.17224998 -1.54931675 77.15576564 -4.61376953 77.13525391 C-4.66004617 67.39103011 -4.69561489 57.64683231 -4.71739388 47.90252113 C-4.72784504 43.37817131 -4.74202843 38.85389649 -4.76464844 34.32958984 C-4.78632946 29.96593867 -4.79832811 25.60235978 -4.80352402 21.23865891 C-4.80722832 19.57123043 -4.8144616 17.90380605 -4.82522964 16.23640823 C-4.83968173 13.90654096 -4.84175014 11.57697497 -4.84082031 9.24707031 C-4.84801086 8.55295547 -4.85520142 7.85884064 -4.86260986 7.14369202 C-4.83270691 0.25007656 -4.83270691 0.25007656 0 0 Z " fill="#BCFE72" transform="translate(225.61376953125,257.86474609375)"/>
<path d="M0 0 C6.579375 -0.0825 13.15875 -0.165 19.9375 -0.25 C23.02532837 -0.30462402 23.02532837 -0.30462402 26.17553711 -0.36035156 C27.8344621 -0.37205028 29.49339871 -0.38223929 31.15234375 -0.390625 C31.99156372 -0.41108887 32.83078369 -0.43155273 33.69543457 -0.45263672 C42.0556709 -0.45749803 49.29612079 2.44105287 55.42578125 8.19921875 C61.58513819 15.245034 62.75121102 22.21928226 62.42578125 31.43359375 C61.60757118 38.28704136 58.90572574 44.09427426 54 49 C46.1487887 54.89270345 38.71359035 56.31431919 29.0625 56.125 C26.071875 56.08375 23.08125 56.0425 20 56 C20 62.93 20 69.86 20 77 C13.4 77 6.8 77 0 77 C0 51.59 0 26.18 0 0 Z M20 16 C20 23.92 20 31.84 20 40 C30.01331295 40.37350721 30.01331295 40.37350721 39.46484375 37.65625 C42.19059648 34.72389988 43.32647589 31.91782145 43.625 27.9375 C42.92897827 23.55256309 41.87543785 21.35467749 39 18 C35.3511932 15.45271978 31.51983554 15.77088014 27.25 15.875 C23.66125 15.936875 23.66125 15.936875 20 16 Z " fill="#FEFEFE" transform="translate(350,257)"/>
<path d="M0 0 C1.35513954 0.00539291 1.35513954 0.00539291 2.73765564 0.01089478 C3.68389801 0.01074875 4.63014038 0.01060272 5.60505676 0.01045227 C8.74880729 0.0111518 11.89249938 0.01894608 15.03623962 0.02676392 C17.20957405 0.02862795 19.3829089 0.03005192 21.5562439 0.03105164 C27.28884533 0.03487795 33.0214216 0.0447092 38.75401306 0.05575562 C44.59873616 0.0659673 50.44346331 0.07054873 56.28819275 0.07559204 C67.76541737 0.08633137 79.24262328 0.10340915 90.71983337 0.12442017 C90.71983337 0.45442017 90.71983337 0.78442017 90.71983337 1.12442017 C88.07983337 1.45442017 85.43983337 1.78442017 82.71983337 2.12442017 C83.60198224 5.00656904 83.60198224 5.00656904 84.71983337 7.12442017 C72.34483337 7.61942017 72.34483337 7.61942017 59.71983337 8.12442017 C59.71983337 15.38442017 59.71983337 22.64442017 59.71983337 30.12442017 C62.02983337 30.12442017 64.33983337 30.12442017 66.71983337 30.12442017 C66.55483337 30.90817017 66.38983337 31.69192017 66.21983337 32.49942017 C65.58651302 37.09099274 65.65720405 41.48985043 65.71983337 46.12442017 C69.01983337 46.12442017 72.31983337 46.12442017 75.71983337 46.12442017 C75.71983337 46.45442017 75.71983337 46.78442017 75.71983337 47.12442017 C72.08983337 47.12442017 68.45983337 47.12442017 64.71983337 47.12442017 C64.38983337 43.82442017 64.05983337 40.52442017 63.71983337 37.12442017 C55.79983337 36.79442017 47.87983337 36.46442017 39.71983337 36.12442017 C39.71983337 35.13442017 39.71983337 34.14442017 39.71983337 33.12442017 C39.05983337 33.12442017 38.39983337 33.12442017 37.71983337 33.12442017 C37.71983337 32.46442017 37.71983337 31.80442017 37.71983337 31.12442017 C37.05983337 30.79442017 36.39983337 30.46442017 35.71983337 30.12442017 C36.37983337 29.79442017 37.03983337 29.46442017 37.71983337 29.12442017 C38.04983337 22.19442017 38.37983337 15.26442017 38.71983337 8.12442017 C31.45983337 8.12442017 24.19983337 8.12442017 16.71983337 8.12442017 C16.38983337 6.80442017 16.05983337 5.48442017 15.71983337 4.12442017 C17.69983337 3.79442017 19.67983337 3.46442017 21.71983337 3.12442017 C17.57434922 2.92858101 13.42843667 2.74414174 9.28233337 2.56192017 C7.50632751 2.47780884 7.50632751 2.47780884 5.69444275 2.39199829 C4.56973572 2.34365845 3.44502869 2.2953186 2.28623962 2.24551392 C1.24411316 2.19838257 0.20198669 2.15125122 -0.87171936 2.10269165 C-3.23200951 1.84269675 -3.23200951 1.84269675 -4.28016663 3.12442017 C-4.40500817 5.46594858 -4.46615954 7.77949602 -4.48548889 10.12271118 C-4.49538849 10.854375 -4.50528809 11.58603882 -4.51548767 12.33987427 C-4.54719046 14.76932489 -4.57189456 17.1987951 -4.59657288 19.62832642 C-4.61713484 21.30842104 -4.6381311 22.98851039 -4.6595459 24.66859436 C-4.71484488 29.0990982 -4.7642195 33.52964932 -4.81239319 37.9602356 C-4.86255123 42.47789742 -4.91826696 46.99549024 -4.973526 51.51309204 C-5.08120326 60.3834781 -5.1821135 69.25392249 -5.28016663 78.12442017 C3.29983337 77.79442017 11.87983337 77.46442017 20.71983337 77.12442017 C21.37983337 75.47442017 22.03983337 73.82442017 22.71983337 72.12442017 C26.34983337 71.79442017 29.97983337 71.46442017 33.71983337 71.12442017 C34.04983337 66.83442017 34.37983337 62.54442017 34.71983337 58.12442017 C42.63983337 58.12442017 50.55983337 58.12442017 58.71983337 58.12442017 C59.21483337 65.05442017 59.21483337 65.05442017 59.71983337 72.12442017 C61.03983337 72.12442017 62.35983337 72.12442017 63.71983337 72.12442017 C63.71983337 74.10442017 63.71983337 76.08442017 63.71983337 78.12442017 C77.24983337 78.12442017 90.77983337 78.12442017 104.71983337 78.12442017 C104.71983337 54.03442017 104.71983337 29.94442017 104.71983337 5.12442017 C105.04983337 5.12442017 105.37983337 5.12442017 105.71983337 5.12442017 C105.71983337 29.87442017 105.71983337 54.62442017 105.71983337 80.12442017 C68.42983337 80.12442017 31.13983337 80.12442017 -7.28016663 80.12442017 C-7.30079163 67.11004517 -7.32141663 54.09567017 -7.34266663 40.68692017 C-7.35177063 36.5716687 -7.36087463 32.45641724 -7.37025452 28.21646118 C-7.37477112 23.20632935 -7.37477112 23.20632935 -7.37561035 20.86378479 C-7.37714987 19.22132598 -7.38067497 17.57886834 -7.38574219 15.93641663 C-7.39301989 13.45422388 -7.39407404 10.97210043 -7.39369202 8.48989868 C-7.39729012 7.75339616 -7.40088823 7.01689363 -7.40459538 6.25807285 C-7.39086398 -0.36793376 -6.50546314 0.0109386 0 0 Z " fill="#BEFE72" transform="translate(226.28016662597656,256.8755798339844)"/>
<path d="M0 0 C10.23 0 20.46 0 31 0 C31 3.3 31 6.6 31 10 C34.63 10 38.26 10 42 10 C42 17.92 42 25.84 42 34 C37.05 34 32.1 34 27 34 C27 29.05 27 24.1 27 19 C18.09 19 9.18 19 0 19 C0 23.95 0 28.9 0 34 C-4.95 34 -9.9 34 -15 34 C-15 26.08 -15 18.16 -15 10 C-10.05 10 -5.1 10 0 10 C0 6.7 0 3.4 0 0 Z " fill="#07BE5E" transform="translate(260,294)"/>
<path d="M0 0 C7.92 0 15.84 0 24 0 C24.495 6.93 24.495 6.93 25 14 C26.32 14 27.64 14 29 14 C29 15.98 29 17.96 29 20 C14.81 20 0.62 20 -14 20 C-13.34 18.02 -12.68 16.04 -12 14 C-6.555 13.505 -6.555 13.505 -1 13 C-0.67 8.71 -0.34 4.42 0 0 Z " fill="#BFFE71" transform="translate(261,315)"/>
<path d="M0 0 C10.23 0 20.46 0 31 0 C31 6.27 31 12.54 31 19 C20.77 19 10.54 19 0 19 C0 12.73 0 6.46 0 0 Z " fill="#06BD5D" transform="translate(234,266)"/>
<path d="M0 0 C1.35513954 0.00539291 1.35513954 0.00539291 2.73765564 0.01089478 C3.68389801 0.01074875 4.63014038 0.01060272 5.60505676 0.01045227 C8.74880729 0.0111518 11.89249938 0.01894608 15.03623962 0.02676392 C17.20957405 0.02862795 19.3829089 0.03005192 21.5562439 0.03105164 C27.28884533 0.03487795 33.0214216 0.0447092 38.75401306 0.05575562 C44.59873616 0.0659673 50.44346331 0.07054873 56.28819275 0.07559204 C67.76541737 0.08633137 79.24262328 0.10340915 90.71983337 0.12442017 C90.71983337 0.45442017 90.71983337 0.78442017 90.71983337 1.12442017 C85.74456721 2.12594021 81.023395 2.25468057 75.97642517 2.22207642 C75.11884109 2.22061615 74.26125702 2.21915588 73.37768555 2.21765137 C71.52471015 2.21385934 69.67173833 2.20775762 67.81877708 2.19958496 C64.89018401 2.18679408 61.96163633 2.18029946 59.03302002 2.17544556 C52.82443733 2.16403819 46.61589233 2.14477178 40.40733337 2.12442017 C33.19592376 2.10085392 25.98453502 2.08047206 18.77309608 2.06848145 C15.88077608 2.06197466 12.98852044 2.04947095 10.09622192 2.03677368 C8.33623817 2.03314374 6.57625381 2.02979169 4.81626892 2.02676392 C4.00642548 2.0215976 3.19658203 2.01643127 2.36219788 2.0111084 C0.4810305 2.01092752 -1.40003437 2.06202278 -3.28016663 2.12442017 C-5.18626762 4.03052116 -4.46404968 7.52548856 -4.48548889 10.12271118 C-4.49552161 10.86624564 -4.50555433 11.6097801 -4.51589108 12.37584591 C-4.54738484 14.79330725 -4.57209179 17.21078492 -4.59657288 19.62832642 C-4.6149663 21.11657256 -4.63380243 22.60481329 -4.65309143 24.0930481 C-4.7216586 29.62427476 -4.78163473 35.15560522 -4.84266663 40.68692017 C-4.98704163 53.04129517 -5.13141663 65.39567017 -5.28016663 78.12442017 C31.01983337 78.12442017 67.31983337 78.12442017 104.71983337 78.12442017 C104.71983337 54.03442017 104.71983337 29.94442017 104.71983337 5.12442017 C105.04983337 5.12442017 105.37983337 5.12442017 105.71983337 5.12442017 C105.71983337 29.87442017 105.71983337 54.62442017 105.71983337 80.12442017 C68.42983337 80.12442017 31.13983337 80.12442017 -7.28016663 80.12442017 C-7.30079163 67.11004517 -7.32141663 54.09567017 -7.34266663 40.68692017 C-7.35177063 36.5716687 -7.36087463 32.45641724 -7.37025452 28.21646118 C-7.37477112 23.20632935 -7.37477112 23.20632935 -7.37561035 20.86378479 C-7.37714987 19.22132598 -7.38067497 17.57886834 -7.38574219 15.93641663 C-7.39301989 13.45422388 -7.39407404 10.97210043 -7.39369202 8.48989868 C-7.39729012 7.75339616 -7.40088823 7.01689363 -7.40459538 6.25807285 C-7.39086398 -0.36793376 -6.50546314 0.0109386 0 0 Z " fill="#C8F290" transform="translate(226.28016662597656,256.8755798339844)"/>
<path d="M0 0 C9.9 0 19.8 0 30 0 C30 6.27 30 12.54 30 19 C20.1 19 10.2 19 0 19 C0 12.73 0 6.46 0 0 Z " fill="#01BE61" transform="translate(287,266)"/>
<path d="M0 0 C0 0.66 0 1.32 0 2 C0.66 2 1.32 2 2 2 C2.02895976 5.12498063 2.04678483 8.2499269 2.0625 11.375 C2.07087891 12.26445312 2.07925781 13.15390625 2.08789062 14.0703125 C2.09111328 14.92109375 2.09433594 15.771875 2.09765625 16.6484375 C2.10289307 17.43395996 2.10812988 18.21948242 2.11352539 19.02880859 C2 21 2 21 1 23 C-9.56 23 -20.12 23 -31 23 C-31.77819882 19.88720473 -32.12799527 17.81105024 -32.1328125 14.70703125 C-32.13410156 13.91232422 -32.13539063 13.11761719 -32.13671875 12.29882812 C-32.13285156 11.47833984 -32.12898438 10.65785156 -32.125 9.8125 C-32.12886719 8.98041016 -32.13273437 8.14832031 -32.13671875 7.29101562 C-32.12667092 1.12667092 -32.12667092 1.12667092 -31 0 C-26.88863526 -0.33142597 -22.76653677 -0.42648806 -18.64428711 -0.55761719 C-16.5743665 -0.62461591 -14.50504604 -0.70240255 -12.43554688 -0.78125 C-11.13810547 -0.82507813 -9.84066406 -0.86890625 -8.50390625 -0.9140625 C-7.30580322 -0.9548291 -6.1077002 -0.9955957 -4.87329102 -1.03759766 C-2 -1 -2 -1 0 0 Z M-30 2 C-30 8.27 -30 14.54 -30 21 C-20.1 21 -10.2 21 0 21 C0 14.73 0 8.46 0 2 C-9.9 2 -19.8 2 -30 2 Z " fill="#9AF97C" transform="translate(317,264)"/>
<path d="M0 0 C12.87 0 25.74 0 39 0 C39 5.28 39 10.56 39 16 C36.65261719 16.06058594 34.30523437 16.12117188 31.88671875 16.18359375 C29.61300502 16.24540412 27.33934005 16.30878311 25.06567383 16.37231445 C23.48563985 16.41562305 21.90556031 16.45730106 20.32543945 16.49731445 C18.05405952 16.55511583 15.78290811 16.6187816 13.51171875 16.68359375 C12.80536789 16.70030624 12.09901703 16.71701874 11.3712616 16.73423767 C8.3335176 16.8259747 5.90376942 17.03207686 3 18 C2.67 20.31 2.34 22.62 2 25 C1.67 25 1.34 25 1 25 C1 22.36 1 19.72 1 17 C1.99 17 2.98 17 4 17 C4 16.34 4 15.68 4 15 C7.58077593 13.91104109 11.00468023 13.79810192 14.734375 13.68359375 C16.02988281 13.64169922 17.32539063 13.59980469 18.66015625 13.55664062 C20.02343476 13.51683329 21.38671606 13.47712094 22.75 13.4375 C24.12891875 13.39427726 25.50782526 13.35066179 26.88671875 13.30664062 C30.2577119 13.20056042 33.62877826 13.0985015 37 13 C37 9.04 37 5.08 37 1 C35.74292236 1.25124634 35.74292236 1.25124634 34.46044922 1.50756836 C30.76231438 2.03382333 27.36439195 2.017684 23.6328125 1.87890625 C22.95322479 1.85529526 22.27363708 1.83168427 21.57345581 1.80735779 C19.4237221 1.73138273 17.27441063 1.64707883 15.125 1.5625 C13.65887415 1.50921284 12.19272831 1.45647301 10.7265625 1.40429688 C7.15078848 1.27585887 3.57534393 1.13995444 0 1 C0 0.67 0 0.34 0 0 Z " fill="#1DA465" transform="translate(344,163)"/>
<path d="M0 0 C20.13 0 40.26 0 61 0 C61 1.65 61 3.3 61 5 C60.34 5 59.68 5 59 5 C59 4.01 59 3.02 59 2 C39.86 1.67 20.72 1.34 1 1 C1 5.62 1 10.24 1 15 C7.6 15 14.2 15 21 15 C21 15.33 21 15.66 21 16 C20.43490723 16.01981934 19.86981445 16.03963867 19.28759766 16.06005859 C16.73292003 16.15518236 14.17907459 16.26491058 11.625 16.375 C10.73554688 16.4059375 9.84609375 16.436875 8.9296875 16.46875 C8.07890625 16.50742188 7.228125 16.54609375 6.3515625 16.5859375 C5.17327881 16.63306885 5.17327881 16.63306885 3.97119141 16.68115234 C1.76997061 16.8399465 1.76997061 16.8399465 0 19 C-1.98 16.36 -3.96 13.72 -6 11 C-5.67 10.34 -5.34 9.68 -5 9 C-3.68 10.32 -2.36 11.64 -1 13 C-0.67 8.71 -0.34 4.42 0 0 Z " fill="#00AF5C" transform="translate(272,163)"/>
<path d="M0 0 C9.9 0 19.8 0 30 0 C30 6.27 30 12.54 30 19 C20.1 19 10.2 19 0 19 C0 12.73 0 6.46 0 0 Z M1 1 C0.979375 3.619375 0.95875 6.23875 0.9375 8.9375 C0.928396 9.7637085 0.91929199 10.58991699 0.90991211 11.44116211 C0.90276055 13.29433759 0.9497148 15.14749308 1 17 C3.20276802 19.20276802 8.16870253 18.18530037 11.125 18.1875 C11.96804688 18.19974609 12.81109375 18.21199219 13.6796875 18.22460938 C14.50984375 18.22654297 15.34 18.22847656 16.1953125 18.23046875 C16.94828613 18.23457764 17.70125977 18.23868652 18.47705078 18.24291992 C21.80158371 17.99976344 21.80158371 17.99976344 28 16 C28 11.05 28 6.1 28 1 C19.09 1 10.18 1 1 1 Z " fill="#16B74B" transform="translate(287,266)"/>
<path d="M0 0 C1.32 0.66 2.64 1.32 4 2 C4 2.99 4 3.98 4 5 C5.65 5.33 7.3 5.66 9 6 C9.66 8.31 10.32 10.62 11 13 C10.01 13.495 10.01 13.495 9 14 C8.60608782 16.68272918 8.60608782 16.68272918 8.5 19.8125 C8.308284 23.74747088 8.04526982 26.59396599 6 30 C5.34 30 4.68 30 4 30 C3.835 31.0725 3.67 32.145 3.5 33.25 C2.8016058 35.73992714 2.28268702 36.77833353 0.2265625 38.390625 C-5.04281158 41.17222767 -5.04281158 41.17222767 -8.2578125 40.59375 C-8.83273438 40.3978125 -9.40765625 40.201875 -10 40 C-9.20335937 39.65388672 -9.20335937 39.65388672 -8.390625 39.30078125 C-2.04126097 36.36941428 1.8270696 32.91415546 4.453125 26.203125 C6.85241889 16.53739819 4.76402477 8.49017271 0 0 Z " fill="#19A766" transform="translate(253,184)"/>
<path d="M0 0 C8.91 0 17.82 0 27 0 C27 4.95 27 9.9 27 15 C26.34 14.67 25.68 14.34 25 14 C25 10.04 25 6.08 25 2 C17.08 2 9.16 2 1 2 C1 6.29 1 10.58 1 15 C0.67 15 0.34 15 0 15 C0 10.05 0 5.1 0 0 Z " fill="#95FA7F" transform="translate(260,313)"/>
<path d="M0 0 C0.33 0 0.66 0 1 0 C1 5.28 1 10.56 1 16 C-8.24 16 -17.48 16 -27 16 C-27 15.34 -27 14.68 -27 14 C-18.42 14 -9.84 14 -1 14 C-0.67 9.38 -0.34 4.76 0 0 Z " fill="#19A464" transform="translate(378,193)"/>
<path d="M0 0 C0.33 0 0.66 0 1 0 C3 6.625 3 6.625 3 10 C2.01 10.495 2.01 10.495 1 11 C0.28027217 12.73388976 -0.43764059 14.46861963 -1.13671875 16.2109375 C-2.31173528 18.64603963 -3.96868134 20.24886323 -6 22 C-5.855625 21.443125 -5.71125 20.88625 -5.5625 20.3125 C-4.08246474 15.57557008 -4.08246474 15.57557008 -5 11 C-4.33333333 9.66666667 -3.66666667 8.33333333 -3 7 C-3.33 6.34 -3.66 5.68 -4 5 C-3.01 5.33 -2.02 5.66 -1 6 C-0.67 4.02 -0.34 2.04 0 0 Z " fill="#0CB862" transform="translate(198,212)"/>
<path d="M0 0 C0.598125 0.33 1.19625 0.66 1.8125 1 C5.12785525 2.51559097 7.61349192 1.93420912 11 1 C11 3 11 5 11 7 C12.97854258 7.19397476 14.9578648 7.38001321 16.9375 7.5625 C18.03964844 7.66691406 19.14179688 7.77132812 20.27734375 7.87890625 C21.17582031 7.91886719 22.07429688 7.95882812 23 8 C23.33 7.67 23.66 7.34 24 7 C26.33297433 6.95907063 28.66705225 6.95758277 31 7 C27.81998598 10.18001402 24.64208692 9.95719421 20.25 10.25 C12.57109 10.10538776 6.83472918 7.42757626 1.21484375 2.3046875 C0 1 0 1 0 0 Z " fill="#1EAE6C" transform="translate(154,232)"/>
<path d="M0 0 C0 0.33 0 0.66 0 1 C-1.51980469 1.03867188 -1.51980469 1.03867188 -3.0703125 1.078125 C-4.42191597 1.13444181 -5.77347681 1.19178833 -7.125 1.25 C-7.79015625 1.26417969 -8.4553125 1.27835938 -9.140625 1.29296875 C-14.20480441 1.54121284 -17.03105333 2.93308666 -21 6 C-22.04800781 6.73476562 -22.04800781 6.73476562 -23.1171875 7.484375 C-23.69726562 7.90203125 -24.27734375 8.3196875 -24.875 8.75 C-25.90625 9.4925 -26.9375 10.235 -28 11 C-28.33 10.01 -28.66 9.02 -29 8 C-20.42766605 -0.77103043 -11.81757472 -1.68532423 0 0 Z " fill="#18A966" transform="translate(152,162)"/>
<path d="M0 0 C10.23 0 20.46 0 31 0 C30.67 0.66 30.34 1.32 30 2 C20.1 2.33 10.2 2.66 0 3 C0 2.01 0 1.02 0 0 Z " fill="#98FA7E" transform="translate(234,285)"/>
<path d="M0 0 C1.98 0 3.96 0 6 0 C6 0.33 6 0.66 6 1 C4.35 1 2.7 1 1 1 C1 5.62 1 10.24 1 15 C7.6 15 14.2 15 21 15 C21 15.33 21 15.66 21 16 C20.43490723 16.01981934 19.86981445 16.03963867 19.28759766 16.06005859 C16.73292003 16.15518236 14.17907459 16.26491058 11.625 16.375 C10.73554688 16.4059375 9.84609375 16.436875 8.9296875 16.46875 C8.07890625 16.50742188 7.228125 16.54609375 6.3515625 16.5859375 C5.17327881 16.63306885 5.17327881 16.63306885 3.97119141 16.68115234 C1.76997061 16.8399465 1.76997061 16.8399465 0 19 C-1.98 16.36 -3.96 13.72 -6 11 C-5.67 10.34 -5.34 9.68 -5 9 C-3.68 10.32 -2.36 11.64 -1 13 C-0.67 8.71 -0.34 4.42 0 0 Z " fill="#189A5E" transform="translate(272,163)"/>
<path d="M0 0 C0.99 0.495 0.99 0.495 2 1 C2 3.64 2 6.28 2 9 C2.99 9 3.98 9 5 9 C5.33 10.98 5.66 12.96 6 15 C6.66 15 7.32 15 8 15 C7.43697042 18.94120709 6.3208055 21.7508723 4 25 C3.34 25 2.68 25 2 25 C2.309375 24.443125 2.61875 23.88625 2.9375 23.3125 C4.13725312 20.70127262 4.86251637 18.8871562 5 16 C3.17946646 12.85251385 3.17946646 12.85251385 1 10 C-0.1577506 6.52674819 -0.06866652 3.63932552 0 0 Z " fill="#17A766" transform="translate(327,183)"/>
<path d="M0 0 C5.28 0 10.56 0 16 0 C16 0.33 16 0.66 16 1 C14.576875 1.0928125 14.576875 1.0928125 13.125 1.1875 C11.578125 1.5896875 11.578125 1.5896875 10 2 C8.54708727 4.46255685 8.54708727 4.46255685 8 7 C6.68 7 5.36 7 4 7 C4 5.02 4 3.04 4 1 C2.68 0.67 1.36 0.34 0 0 Z " fill="#B2FE77" transform="translate(286,328)"/>
<path d="M0 0 C1.98 0.99 1.98 0.99 4 2 C4 2.99 4 3.98 4 5 C5.65 5.33 7.3 5.66 9 6 C9.66 8.31 10.32 10.62 11 13 C10.01 13.495 10.01 13.495 9 14 C8.67 13.34 8.34 12.68 8 12 C7.01 11.67 6.02 11.34 5 11 C3.61328125 8.49609375 3.61328125 8.49609375 2.3125 5.4375 C1.87550781 4.42558594 1.43851563 3.41367188 0.98828125 2.37109375 C0.66214844 1.58863281 0.33601562 0.80617187 0 0 Z " fill="#11B164" transform="translate(253,184)"/>
<path d="M0 0 C3.17352446 1.48097808 5.38972939 2.60589559 6.8515625 5.9453125 C7.10679687 6.66460937 7.36203125 7.38390625 7.625 8.125 C7.88539063 8.84945312 8.14578125 9.57390625 8.4140625 10.3203125 C8.70410156 11.15175781 8.70410156 11.15175781 9 12 C4.58848955 10.52949652 2.14860084 6.95377777 0 3 C0 2.01 0 1.02 0 0 Z " fill="#18AC69" transform="translate(294,224)"/>
<path d="M0 0 C1.99825961 2.99738941 2.27550398 3.63347508 2.25 7 C2.25515625 7.680625 2.2603125 8.36125 2.265625 9.0625 C2 11 2 11 0 14 C-2.1951074 8.44766951 -1.84284324 5.52852971 0 0 Z " fill="#0EB969" transform="translate(381,225)"/>
<path d="M0 0 C-4.1689219 3.64780666 -9.44803736 6 -15 6 C-15 5.34 -15 4.68 -15 4 C-13.865625 3.71125 -12.73125 3.4225 -11.5625 3.125 C-10.386875 2.75375 -9.21125 2.3825 -8 2 C-7.67 1.34 -7.34 0.68 -7 0 C-4.0262656 -1.09036928 -3.11592499 -1.03864166 0 0 Z " fill="#1BAF6A" transform="translate(261,235)"/>
<path d="M0 0 C3.3 0 6.6 0 10 0 C10 1.65 10 3.3 10 5 C9.34 5 8.68 5 8 5 C8 4.01 8 3.02 8 2 C5.69 2 3.38 2 1 2 C0.67 1.34 0.34 0.68 0 0 Z " fill="#1DAB6B" transform="translate(323,163)"/>
<path d="M0 0 C0 0.66 0 1.32 0 2 C-5.94 2.495 -5.94 2.495 -12 3 C-7.09396701 -0.67952474 -5.82490317 -0.29124516 0 0 Z " fill="#10B35E" transform="translate(230,163)"/>
<path d="M0 0 C0 0.66 0 1.32 0 2 C-0.7425 2.268125 -1.485 2.53625 -2.25 2.8125 C-4.86636554 3.94229421 -6.80187111 5.20893202 -9 7 C-8.8125 5.1875 -8.8125 5.1875 -8 3 C-5.09303401 0.85802506 -3.64478912 0 0 0 Z " fill="#15AB64" transform="translate(343,164)"/>
<path d="M0 0 C0.33 0 0.66 0 1 0 C3 6.625 3 6.625 3 10 C2.01 10 1.02 10 0 10 C0 6.7 0 3.4 0 0 Z " fill="#08A05E" transform="translate(198,212)"/>
</svg>
