<?xml version="1.0" encoding="UTF-8"?>
<svg version="1.1" xmlns="http://www.w3.org/2000/svg" width="500" height="500">
<path d="M0 0 C165 0 330 0 500 0 C500 165 500 330 500 500 C335 500 170 500 0 500 C0 335 0 170 0 0 Z " fill="#000000" transform="translate(0,0)"/>
<path d="M0 0 C6.60858704 5.34227096 11.74792514 10.89584243 13.875 19.3125 C14.30140232 23.81756243 14.29232677 28.30155568 14.28125 32.82421875 C14.29780579 34.7895959 14.3143779 36.75497306 14.33191681 38.72034168 C14.36397114 42.84193106 14.36981463 46.96363772 14.38031006 51.08532715 C14.3900023 54.49360012 14.4054493 57.90161286 14.43591309 61.30976868 C14.4574296 63.85834527 14.46580625 66.40707441 14.45959473 68.95573425 C14.46970581 70.11075943 14.47981689 71.26578461 14.49023438 72.45581055 C14.49228882 73.46870651 14.49434326 74.48160248 14.49645996 75.52519226 C14.93860155 78.78081792 15.95015947 80.67167824 17.875 83.3125 C21.1774214 84.9637107 24.59593542 84.48534656 28.1875 84 C28.744375 83.773125 29.30125 83.54625 29.875 83.3125 C31.12193853 79.57168442 31.05170355 76.06771956 31.08032227 72.16918945 C31.09022186 71.33969788 31.10012146 70.5102063 31.11032104 69.65557861 C31.14192205 66.91234191 31.16668798 64.16908789 31.19140625 61.42578125 C31.21197698 59.52434335 31.23297349 57.62291001 31.25437927 55.72148132 C31.30958761 50.71560356 31.35900238 45.70968462 31.40722656 40.70373535 C31.4574506 35.59607272 31.51313196 30.48846993 31.56835938 25.38085938 C31.67592584 15.35812213 31.77686994 5.33533408 31.875 -4.6875 C40.455 -4.6875 49.035 -4.6875 57.875 -4.6875 C58.205 6.5325 58.535 17.7525 58.875 29.3125 C60.525 26.0125 62.175 22.7125 63.875 19.3125 C72.13262411 6.58048045 84.27419467 -0.95824237 98.69726562 -5.22680664 C103.07869872 -6.15368604 107.60177765 -5.87218921 112.0625 -5.875 C113.06603516 -5.88724609 114.06957031 -5.89949219 115.10351562 -5.91210938 C130.5368919 -5.94223308 144.18264268 -0.93858061 155.875 9.3125 C168.09680642 21.87321266 172.32823039 35.94983217 172.30883789 53.03979492 C172.02838753 68.39707052 166.61155256 81.3528269 156.0625 92.625 C142.565478 105.29461835 125.83395447 108.84582644 107.94140625 108.59375 C101.46170201 108.35300305 95.83974741 106.81785983 89.875 104.3125 C89.02035156 103.98507813 88.16570312 103.65765625 87.28515625 103.3203125 C74.87784494 97.94969117 64.86348794 86.8478917 59.6953125 74.4921875 C59.28925781 73.41324219 59.28925781 73.41324219 58.875 72.3125 C58.76542969 73.0859375 58.65585938 73.859375 58.54296875 74.65625 C56.8149624 86.00770632 54.5707538 93.37421604 45.875 101.3125 C36.72954264 107.87683525 26.92015323 109.31779172 15.875 108.3125 C6.42520447 106.43514062 -0.68914182 101.06679381 -6.53125 93.48828125 C-11.87598507 84.80308676 -12.54774594 76.06809067 -12.49609375 66.10546875 C-12.51346014 63.55533709 -12.53104466 61.00520691 -12.54882812 58.45507812 C-12.55893725 54.46098839 -12.56248671 50.46699749 -12.56079102 46.47290039 C-12.56434857 42.60014918 -12.59162693 38.72809619 -12.62109375 34.85546875 C-12.61291122 33.65754196 -12.6047287 32.45961517 -12.59629822 31.22538757 C-12.61135155 29.5576403 -12.61135155 29.5576403 -12.62670898 27.85620117 C-12.62654282 26.87963058 -12.62637665 25.90306 -12.62620544 24.89689636 C-13.26501052 21.58706569 -14.53659677 20.40032355 -17.125 18.3125 C-19.09927825 17.65458807 -19.09927825 17.65458807 -21.125 17.75 C-21.785 17.72808594 -22.445 17.70617187 -23.125 17.68359375 C-26.32968653 18.69131744 -27.33202037 20.52095414 -29.125 23.3125 C-29.52022348 26.16999177 -29.68983642 28.64509222 -29.67089844 31.49926758 C-29.68123611 32.30954407 -29.69157379 33.11982056 -29.70222473 33.95465088 C-29.73162921 36.62231442 -29.73315138 39.28921846 -29.734375 41.95703125 C-29.74935827 43.81078028 -29.76608572 45.66451598 -29.78448486 47.51823425 C-29.82815421 52.38931902 -29.84815656 57.2602237 -29.86322021 62.13146973 C-29.88279277 67.10533291 -29.92476264 72.07900166 -29.96484375 77.05273438 C-30.04014163 86.80596252 -30.08836495 96.55904992 -30.125 106.3125 C-38.705 106.3125 -47.285 106.3125 -56.125 106.3125 C-56.21564708 95.55025124 -56.28891495 84.78825924 -56.33224869 74.02571392 C-56.3530548 69.02733272 -56.38124395 64.02922799 -56.42675781 59.03100586 C-56.47046571 54.20045597 -56.49418948 49.37017074 -56.50450897 44.53943825 C-56.51185581 42.70357922 -56.52620167 40.8677334 -56.54792023 39.03198814 C-56.69110638 26.41880218 -56.23269392 15.33179557 -47.8828125 5.09375 C-35.39341464 -7.56217316 -14.76457562 -10.32114143 0 0 Z " fill="#00BC61" transform="translate(118.125,128.6875)"/>
<path d="M0 0 C53.46 0 106.92 0 162 0 C162 37.29 162 74.58 162 113 C108.54 113 55.08 113 0 113 C0 75.71 0 38.42 0 0 Z " fill="#C0FE71" transform="translate(206,261)"/>
<path d="M0 0 C1.26031036 -0.01007584 1.26031036 -0.01007584 2.54608154 -0.02035522 C5.30194138 -0.03922925 8.05755626 -0.04325418 10.81347656 -0.04541016 C12.74627784 -0.05184594 14.67907816 -0.05857487 16.61187744 -0.06558228 C20.65663916 -0.07752895 24.70131564 -0.08126584 28.74609375 -0.08007812 C33.90152259 -0.0798752 39.05639856 -0.10716159 44.21169662 -0.14162254 C48.20284481 -0.16397971 52.19386186 -0.16791296 56.18506622 -0.16685867 C58.08427076 -0.16920198 59.98347961 -0.17795296 61.88262177 -0.19352341 C75.79729724 -0.29691891 88.49722974 0.25428032 99.20410156 10.29052734 C107.35237932 18.35514722 111.40683279 26.29599514 111.57910156 37.79052734 C111.61005903 49.64858499 107.45047141 57.69389552 99.38769531 66.32958984 C97.35805338 68.15227366 95.64362408 69.14187754 93.20410156 70.29052734 C97.85762125 81.48674657 97.85762125 81.48674657 106.76269531 88.64208984 C110.71830081 88.96785483 110.71830081 88.96785483 116.20410156 88.29052734 C116.20410156 95.55052734 116.20410156 102.81052734 116.20410156 110.29052734 C90.69507352 111.05887156 90.69507352 111.05887156 84.20410156 105.29052734 C80.47467193 101.65243593 77.95114571 98.0741624 75.91503906 93.26708984 C72.24179116 83.62355108 72.24179116 83.62355108 64.74658203 77.27587891 C58.64511051 76.12723693 53.55735694 76.77885577 47.20410156 77.29052734 C47.20410156 88.18052734 47.20410156 99.07052734 47.20410156 110.29052734 C39.62697971 110.38286871 32.05184772 110.46235733 24.47460938 110.51025391 C21.90260159 110.53024193 19.3306385 110.55744159 16.75878906 110.59228516 C-4.51383357 110.87305735 -19.30277614 109.3242274 -37.04589844 97.04052734 C-49.49471972 84.59170606 -55.1692413 70.16858026 -55.17114258 52.81176758 C-54.99914584 45.85927722 -53.40294592 39.74048912 -50.79589844 33.29052734 C-50.49554688 32.54416016 -50.19519531 31.79779297 -49.88574219 31.02880859 C-43.85952239 17.750255 -33.09022677 9.3879701 -20.06933594 3.51708984 C-13.26302944 0.96675543 -7.20415218 -0.00842263 0 0 Z " fill="#FCFCFC" transform="translate(72.7958984375,259.70947265625)"/>
<path d="M0 0 C28.38 0 56.76 0 86 0 C86.495 4.95 86.495 4.95 87 10 C87.969375 9.0925 88.93875 8.185 89.9375 7.25 C97.52110608 0.15045388 105.94691052 -0.56846652 115.91015625 -0.390625 C117.11820419 -0.38496521 118.32625214 -0.37930542 119.57090759 -0.37347412 C123.40185386 -0.35121353 127.23183986 -0.30103374 131.0625 -0.25 C133.67121038 -0.22992179 136.27993553 -0.21167334 138.88867188 -0.1953125 C145.25948049 -0.15138213 151.62957784 -0.08242397 158 0 C158 7.26 158 14.52 158 22 C152.99779297 22.02126953 152.99779297 22.02126953 147.89453125 22.04296875 C144.66094871 22.07359178 141.42757149 22.11268005 138.1940918 22.15258789 C135.94872307 22.17576945 133.70324558 22.19016395 131.45776367 22.19555664 C128.22766327 22.2048447 124.99927391 22.24583423 121.76953125 22.29296875 C120.26613945 22.28706978 120.26613945 22.28706978 118.7323761 22.28105164 C113.98704372 22.38015142 111.72768665 22.4428401 107.86621094 25.39941406 C105.38639043 28.85507185 105.34053362 30.79653652 105.56640625 34.91015625 C106.19230281 37.92686488 107.52190904 39.25075932 110 41 C113.43376268 42.71688134 117.38114365 42.24509002 121.1640625 42.31640625 C122.07127045 42.33718735 122.97847839 42.35796844 123.91317749 42.37937927 C126.8170398 42.44487135 129.72099405 42.50375814 132.625 42.5625 C134.59115542 42.60568555 136.55730147 42.64929985 138.5234375 42.69335938 C143.34886539 42.80136093 148.17436101 42.90043677 153 43 C153 50.26 153 57.52 153 65 C150.18210937 65.02578125 147.36421875 65.0515625 144.4609375 65.078125 C141.72044039 65.11657912 138.98012928 65.16172846 136.23974609 65.20751953 C134.34074846 65.2356792 132.4416347 65.25691858 130.54248047 65.27099609 C127.80636362 65.29249518 125.07163548 65.33918008 122.3359375 65.390625 C121.49195404 65.39185364 120.64797058 65.39308228 119.77841187 65.39434814 C114.27079903 65.53003743 111.24556373 66.42593276 107 70 C105.26368364 73.47263273 105.39809598 77.21193013 106 81 C108.18159145 83.75569447 109.87177494 85.43588747 113 87 C114.4494793 87.11767472 115.90393996 87.17689268 117.35791016 87.20532227 C118.25869293 87.22526749 119.15947571 87.24521271 120.08755493 87.26576233 C121.06155243 87.28247482 122.03554993 87.29918732 123.0390625 87.31640625 C124.03505463 87.33718735 125.03104675 87.35796844 126.05722046 87.37937927 C129.24640854 87.44489042 132.43568058 87.50376704 135.625 87.5625 C137.78386293 87.60568373 139.9427173 87.64929797 142.1015625 87.69335938 C147.40095678 87.80138549 152.70041257 87.9004474 158 88 C158 95.26 158 102.52 158 110 C150.4744039 110.09922689 142.94919267 110.17163956 135.4230957 110.21972656 C132.86541099 110.23978303 130.30777179 110.26703505 127.75024414 110.30175781 C124.06385025 110.35053672 120.37806516 110.37302945 116.69140625 110.390625 C115.55667374 110.41127014 114.42194122 110.43191528 113.25282288 110.45318604 C102.88149114 110.45608617 94.54502271 107.22733754 87 100 C84.75095667 97.13259442 82.80593316 94.16325871 81 91 C80.62359375 90.43023437 80.2471875 89.86046875 79.859375 89.2734375 C78.49282943 85.65830331 78.63126144 82.08200256 78.625 78.25 C78.60050781 77.4765625 78.57601562 76.703125 78.55078125 75.90625 C78.50675261 67.15922775 82.29287552 61.34124943 88 55 C86.06574317 50.9632901 83.70562256 47.23200097 81.33984375 43.4375 C78.92495804 39.04423854 78.86373678 35.36460745 78.875 30.375 C78.87113281 28.65410156 78.87113281 28.65410156 78.8671875 26.8984375 C79 24 79 24 80 22 C72.08 22 64.16 22 56 22 C56.06298458 29.60651877 56.1384509 37.21271913 56.23571491 44.81887341 C56.28038664 48.35098666 56.31964938 51.88298544 56.34643555 55.4152832 C56.3774908 59.47897322 56.43227834 63.54204542 56.48828125 67.60546875 C56.49467117 68.8702153 56.5010611 70.13496185 56.50764465 71.43803406 C56.52743881 72.61888077 56.54723297 73.79972748 56.56762695 75.01635742 C56.58428154 76.57189583 56.58428154 76.57189583 56.60127258 78.15885925 C57.06113524 81.43562048 58.05893533 83.34159864 60 86 C62.70183055 87.35091528 65.11808206 87.33858058 68.125 87.5625 C70.06375 87.706875 72.0025 87.85125 74 88 C74 95.26 74 102.52 74 110 C51.32753977 110.67678986 51.32753977 110.67678986 40.6875 101.875 C35.08387853 96.55332175 30.23201902 89.23740032 29.87974548 81.28547668 C29.88196609 80.19071518 29.88418671 79.09595367 29.88647461 77.96801758 C29.88655014 76.72695755 29.88662567 75.48589752 29.88670349 74.20722961 C29.89181009 72.85299642 29.89702609 71.49876363 29.90234375 70.14453125 C29.90420917 68.75876415 29.90563249 67.37299639 29.90663147 65.98722839 C29.9104469 62.3425209 29.92026887 58.69785335 29.93133545 55.05316162 C29.9415705 51.33297272 29.94618838 47.61277716 29.95117188 43.89257812 C29.96136115 36.59501682 29.98093524 29.29756516 30 22 C20.1 22 10.2 22 0 22 C0 14.74 0 7.48 0 0 Z " fill="#00BD62" transform="translate(282,125)"/>
<path d="M0 0 C64.375 0 64.375 0 77.125 12 C85.56190917 20.68505355 87.60715712 29.57309576 87.47314453 41.36254883 C87.01279552 53.17112306 82.3680543 62.19805672 73.75 70.1875 C65.6985524 76.72149073 57.5592113 79.14476702 47.2890625 79.09765625 C46.16709473 79.09515869 45.04512695 79.09266113 43.88916016 79.09008789 C41.77840088 79.07643188 41.77840088 79.07643188 39.625 79.0625 C32.880625 79.0315625 32.880625 79.0315625 26 79 C26 89.23 26 99.46 26 110 C17.42 110 8.84 110 0 110 C0 73.7 0 37.4 0 0 Z " fill="#FEFEFE" transform="translate(395,260)"/>
<path d="M0 0 C6.48729356 4.5672874 10.31450304 11.11602874 13.4375 18.3125 C15.38340094 31.0689617 14.26012448 42.35066554 6.66796875 52.9609375 C2.00210633 58.66487236 -3.61124178 63.18045051 -11.09008789 64.31787109 C-20.38203954 64.96113603 -29.40537178 65.01944607 -37 59 C-43.10840905 53.5750493 -46.62151221 47.78047701 -49 40 C-49.19078125 39.37867188 -49.3815625 38.75734375 -49.578125 38.1171875 C-51.6577761 27.68041996 -49.94542297 17.89549607 -44.71484375 8.75390625 C-34.21658061 -6.71567927 -15.66670188 -8.75492164 0 0 Z " fill="#000100" transform="translate(250,150)"/>
<path d="M0 0 C0 21.78 0 43.56 0 66 C-29.671875 66 -29.671875 66 -40.08984375 56.078125 C-47.29450442 48.23992566 -48.4176782 39.73019089 -48.25390625 29.4453125 C-47.50780339 19.32127063 -42.86047979 12.43589805 -35.48828125 5.7109375 C-23.09200407 -2.81271933 -16.80814947 0 0 0 Z " fill="#010101" transform="translate(93,282)"/>
<path d="M0 0 C14.52 0 29.04 0 44 0 C44 4.62 44 9.24 44 14 C49.28 14 54.56 14 60 14 C60 25.55 60 37.1 60 49 C52.74 49 45.48 49 38 49 C38 42.07 38 35.14 38 28 C25.46 28 12.92 28 0 28 C0 34.93 0 41.86 0 49 C-7.26 49 -14.52 49 -22 49 C-22 37.45 -22 25.9 -22 14 C-14.74 14 -7.48 14 0 14 C0 9.38 0 4.76 0 0 Z " fill="#00BF63" transform="translate(264,313)"/>
<path d="M0 0 C14.85 0 29.7 0 45 0 C45 9.57 45 19.14 45 29 C30.15 29 15.3 29 0 29 C0 19.43 0 9.86 0 0 Z " fill="#0AC263" transform="translate(302,272)"/>
<path d="M0 0 C14.52 0 29.04 0 44 0 C44 9.24 44 18.48 44 28 C29.48 28 14.96 28 0 28 C0 18.76 0 9.52 0 0 Z " fill="#01BF63" transform="translate(227,273)"/>
<path d="M0 0 C3.96 -0.0825 7.92 -0.165 12 -0.25 C13.84851563 -0.30462402 13.84851563 -0.30462402 15.734375 -0.36035156 C22.66900026 -0.4299673 27.1262884 0.23972668 33 4 C36.78008107 7.78008107 37.27901132 10.89576902 37.4375 16.0625 C37.43018752 21.74429371 35.78117518 24.92196229 32.125 29.1875 C28.06763179 32.64819642 24.27539158 33.24897838 19.04296875 33.1953125 C18.04031982 33.19031738 17.0376709 33.18532227 16.00463867 33.18017578 C14.74498291 33.16196777 13.48532715 33.14375977 12.1875 33.125 C6.1546875 33.063125 6.1546875 33.063125 0 33 C0 22.11 0 11.22 0 0 Z " fill="#020202" transform="translate(120,282)"/>
<path d="M0 0 C3.465 -0.0825 6.93 -0.165 10.5 -0.25 C12.11358398 -0.30462402 12.11358398 -0.30462402 13.75976562 -0.36035156 C21.00925844 -0.44327934 26.52065884 0.68012864 31.875 5.7890625 C35.17000036 11.16632003 36.04307488 15.75148475 35 22 C33.39097898 27.72651581 30.49079963 30.9787048 25.44726562 33.99438477 C20.76634069 35.91784145 15.97599582 35.51331697 11 35.3125 C7.37 35.209375 3.74 35.10625 0 35 C0 23.45 0 11.9 0 0 Z " fill="#030303" transform="translate(421,282)"/>
</svg>
