<?xml version="1.0" encoding="UTF-8"?>
<svg version="1.1" xmlns="http://www.w3.org/2000/svg" width="500" height="500">
<path d="M0 0 C165 0 330 0 500 0 C500 165 500 330 500 500 C335 500 170 500 0 500 C0 335 0 170 0 0 Z " fill="#000000" transform="translate(0,0)"/>
<path d="M0 0 C7.18260395 3.33824172 11.3451824 7.63861817 14.41867065 15.03134155 C15.60030697 18.92016519 15.48384177 22.85207214 15.484375 26.88671875 C15.49758286 27.80430466 15.51079071 28.72189056 15.5243988 29.6672821 C15.56507501 32.57769918 15.58692046 35.48780148 15.60546875 38.3984375 C15.6292456 41.32683242 15.65728409 44.25493067 15.69725037 47.18315125 C15.721641 49.00043869 15.73647219 50.81788438 15.74085999 52.6353302 C15.56892846 57.3440155 15.56892846 57.3440155 18.04296875 61.0859375 C20.68296875 61.0859375 23.32296875 61.0859375 26.04296875 61.0859375 C26.37296875 40.9559375 26.70296875 20.8259375 27.04296875 0.0859375 C32.98296875 0.0859375 38.92296875 0.0859375 45.04296875 0.0859375 C45.53796875 11.9659375 45.53796875 11.9659375 46.04296875 24.0859375 C47.69296875 20.7859375 49.34296875 17.4859375 51.04296875 14.0859375 C53.48046875 11.2734375 53.48046875 11.2734375 56.04296875 9.0859375 C57.31140625 7.8484375 57.31140625 7.8484375 58.60546875 6.5859375 C68.50855307 -1.23228697 79.55153788 -2.13341692 91.70166016 -1.19189453 C102.44422306 0.08287466 109.70358517 5.49563483 117.04296875 13.0859375 C117.37296875 13.4159375 117.70296875 13.7459375 118.04296875 14.0859375 C118.37296875 9.4659375 118.70296875 4.8459375 119.04296875 0.0859375 C138.84296875 0.0859375 158.64296875 0.0859375 179.04296875 0.0859375 C179.37296875 2.3959375 179.70296875 4.7059375 180.04296875 7.0859375 C180.85701172 6.45365234 180.85701172 6.45365234 181.6875 5.80859375 C182.76064453 4.98681641 182.76064453 4.98681641 183.85546875 4.1484375 C184.91701172 3.33052734 184.91701172 3.33052734 186 2.49609375 C190.34593095 -0.50367885 194.80518833 -0.04291099 199.8671875 -0.01171875 C201.15928886 -0.00959633 201.15928886 -0.00959633 202.47749329 -0.00743103 C205.22852044 -0.0018339 207.97946619 0.01071804 210.73046875 0.0234375 C212.59570195 0.02845287 214.46093642 0.03301571 216.32617188 0.03710938 C220.89846886 0.04813458 225.470705 0.06539723 230.04296875 0.0859375 C230.0698197 2.56517551 230.08973422 5.0441259 230.10546875 7.5234375 C230.11384766 8.23048828 230.12222656 8.93753906 230.13085938 9.66601562 C230.13950463 11.47287309 230.09516886 13.27981353 230.04296875 15.0859375 C228.10911484 17.01979141 224.47371142 16.26960396 221.83203125 16.296875 C220.34504111 16.32494547 218.85806209 16.35360995 217.37109375 16.3828125 C215.01855805 16.42408506 212.66622945 16.46095698 210.31347656 16.48730469 C208.04838774 16.51489292 205.78425334 16.56076556 203.51953125 16.609375 C202.46471054 16.6142543 202.46471054 16.6142543 201.38858032 16.61923218 C198.51878649 16.69156957 196.49308743 16.78863483 194.06396484 18.39306641 C192.29831151 21.32062266 193.29109619 23.90493823 194.04296875 27.0859375 C196.87176161 29.91473036 198.84221073 29.4002041 202.80078125 29.5 C203.4638327 29.51936615 204.12688416 29.5387323 204.81002808 29.5586853 C206.92921052 29.61849704 209.04844725 29.66487138 211.16796875 29.7109375 C212.60419044 29.74911595 214.0403892 29.78816761 215.4765625 29.828125 C218.99857904 29.92584569 222.52034947 30.00539626 226.04296875 30.0859375 C226.04296875 35.3659375 226.04296875 40.6459375 226.04296875 46.0859375 C222.97242188 46.12460938 222.97242188 46.12460938 219.83984375 46.1640625 C217.8507188 46.20579239 215.8615941 46.24766153 213.87255859 46.29345703 C212.49345224 46.32162849 211.11418557 46.34286222 209.73486328 46.35693359 C207.74873926 46.37841295 205.76296966 46.42716882 203.77734375 46.4765625 C202.58334961 46.49750977 201.38935547 46.51845703 200.15917969 46.54003906 C196.46588237 47.1870316 195.2137751 48.06245893 193.04296875 51.0859375 C193.18578383 56.14286649 193.18578383 56.14286649 196.04296875 60.0859375 C198.6187626 60.33123331 201.09525882 60.45935543 203.67578125 60.5 C204.8035347 60.52904922 204.8035347 60.52904922 205.95407104 60.5586853 C208.35858774 60.61852897 210.76315219 60.66488476 213.16796875 60.7109375 C214.79689603 60.74911296 216.42580303 60.78816443 218.0546875 60.828125 C222.05067652 60.9258862 226.04644609 61.00541371 230.04296875 61.0859375 C230.04296875 66.3659375 230.04296875 71.6459375 230.04296875 77.0859375 C224.63530751 77.18534304 219.22818647 77.25765801 213.81982422 77.30566406 C211.98281582 77.32569123 210.14587046 77.35292132 208.30908203 77.38769531 C205.65771873 77.43660815 203.00720334 77.45899513 200.35546875 77.4765625 C199.54368164 77.49720764 198.73189453 77.51785278 197.89550781 77.53912354 C191.10012081 77.54175496 185.93306439 75.61854744 180.80078125 71.12109375 C180.26195312 70.47011719 179.723125 69.81914062 179.16796875 69.1484375 C178.33652344 68.17583984 178.33652344 68.17583984 177.48828125 67.18359375 C173.56839077 61.4944554 173.25246768 55.80519658 174.04296875 49.0859375 C175.32013591 45.4592647 177.19973161 42.32569686 179.35546875 39.15625 C180.33648884 37.01291014 180.33648884 37.01291014 178.92578125 34.82421875 C178.34570312 34.02371094 177.765625 33.22320312 177.16796875 32.3984375 C173.99391495 27.51805866 173.06391441 23.83633262 174.04296875 18.0859375 C174.37296875 17.4259375 174.70296875 16.7659375 175.04296875 16.0859375 C169.76296875 16.0859375 164.48296875 16.0859375 159.04296875 16.0859375 C159.16088901 22.19162857 159.28511248 28.29714569 159.4152832 34.40258789 C159.45870209 36.48132807 159.50037187 38.56010553 159.5402832 40.63891602 C159.59781796 43.62006895 159.66155994 46.60103299 159.7265625 49.58203125 C159.75163124 50.98514809 159.75163124 50.98514809 159.77720642 52.41661072 C159.79715164 53.27742752 159.81709686 54.13824432 159.83764648 55.02514648 C159.85319077 55.78681625 159.86873505 56.54848602 159.88475037 57.33323669 C159.85676204 59.11328756 159.85676204 59.11328756 161.04296875 60.0859375 C162.72480823 60.31880758 164.41421035 60.49857916 166.10546875 60.6484375 C167.73484375 60.7928125 169.36421875 60.9371875 171.04296875 61.0859375 C171.04296875 66.3659375 171.04296875 71.6459375 171.04296875 77.0859375 C154.18558573 77.73429839 154.18558573 77.73429839 147.3359375 71.54296875 C140.85413882 64.65112928 139.58890488 57.24580596 139.75 48.1171875 C139.75424484 47.19627319 139.75848969 46.27535889 139.76286316 45.32653809 C139.7795281 42.41269505 139.81715687 39.49956811 139.85546875 36.5859375 C139.87053136 34.59896839 139.884217 32.61198833 139.89648438 30.625 C139.92682773 25.7781544 139.98557124 20.93283844 140.04296875 16.0859375 C130.14296875 16.5809375 130.14296875 16.5809375 120.04296875 17.0859375 C120.86796875 18.6946875 121.69296875 20.3034375 122.54296875 21.9609375 C126.59489854 31.71558328 126.72883875 43.16656818 123.41796875 53.2109375 C119.10862643 63.06516784 111.79450658 71.38844475 101.73046875 75.4609375 C100.17502883 76.02255631 98.61321976 76.56716896 97.04296875 77.0859375 C96.05296875 77.4159375 95.06296875 77.7459375 94.04296875 78.0859375 C80.42476366 79.28051689 68.87270082 78.58257947 57.92578125 69.78515625 C52.45981093 64.85217474 48.51055297 60.05323411 46.04296875 53.0859375 C45.93082031 54.12041016 45.93082031 54.12041016 45.81640625 55.17578125 C44.68415723 63.26803162 42.51073672 69.57906816 35.91796875 74.75390625 C28.49318189 79.11352617 19.89752186 79.6037846 11.6171875 77.45703125 C5.6552842 74.87546924 0.97247793 69.7483544 -2.02807617 64.05297852 C-3.34084652 59.86004866 -3.25504145 55.88486451 -3.265625 51.515625 C-3.29076821 49.6315071 -3.31616645 47.74739259 -3.34179688 45.86328125 C-3.37061795 42.90283974 -3.39464787 39.9424567 -3.41333008 36.98193359 C-3.43492327 34.11786923 -3.47433705 31.25446306 -3.515625 28.390625 C-3.51574081 27.5030954 -3.51585663 26.6155658 -3.51597595 25.70114136 C-3.52931473 24.87663483 -3.5426535 24.0521283 -3.55639648 23.20263672 C-3.56146713 22.47825409 -3.56653778 21.75387146 -3.57176208 21.00753784 C-4.07304932 18.50727619 -4.94476572 17.61490331 -6.95703125 16.0859375 C-9.99933948 15.58583226 -9.99933948 15.58583226 -12.95703125 16.0859375 C-15.22506526 19.48798852 -15.2238307 20.75169536 -15.27587891 24.75073242 C-15.2957486 25.91170944 -15.31561829 27.07268646 -15.33609009 28.2688446 C-15.3534169 30.14863762 -15.3534169 30.14863762 -15.37109375 32.06640625 C-15.3904599 33.34953201 -15.40982605 34.63265778 -15.42977905 35.95466614 C-15.48110417 39.362547 -15.52072757 42.77046736 -15.55792236 46.17852783 C-15.59795982 49.65752943 -15.64905329 53.13636668 -15.69921875 56.61523438 C-15.79598241 63.43868872 -15.87936365 70.26223935 -15.95703125 77.0859375 C-21.89703125 77.0859375 -27.83703125 77.0859375 -33.95703125 77.0859375 C-34.07051001 69.43572325 -34.16202009 61.7858278 -34.21609211 54.13497353 C-34.24205946 50.58136056 -34.27721608 47.0283589 -34.33422852 43.47509766 C-34.39952808 39.37917602 -34.42331754 35.28388489 -34.4453125 31.1875 C-34.47111893 29.9266861 -34.49692535 28.66587219 -34.52351379 27.36685181 C-34.52616289 18.94589778 -33.29825689 11.92522973 -27.51387024 5.47720337 C-19.6397375 -1.52447356 -10.00419183 -3.09244503 0 0 Z " fill="#00BC61" transform="translate(152.95703125,162.9140625)"/>
<path d="M0 0 C37.29 0 74.58 0 113 0 C113 25.74 113 51.48 113 78 C75.71 78 38.42 78 0 78 C0 52.26 0 26.52 0 0 Z " fill="#BEFD71" transform="translate(219,258)"/>
<path d="M0 0 C1.20870758 -0.01283524 2.41741516 -0.02567047 3.66275024 -0.03889465 C4.96690887 -0.04628159 6.2710675 -0.05366852 7.61474609 -0.0612793 C8.28261517 -0.06535482 8.95048424 -0.06943035 9.63859177 -0.07362938 C13.17735225 -0.09445936 16.71607437 -0.1087713 20.25488281 -0.11816406 C23.88611083 -0.12919047 27.51671963 -0.16355434 31.14772987 -0.20333576 C33.96012402 -0.22965495 36.7723744 -0.23786956 39.58488083 -0.24144554 C41.56665577 -0.24860555 43.54833181 -0.27498134 45.52993774 -0.30183411 C55.38488684 -0.27834858 64.12035367 1.36706681 71.47412109 8.37231445 C77.29792988 15.2012476 78.83967763 21.9430872 78.50146484 30.83325195 C77.39878067 38.38443317 73.44230201 43.04950123 68.01318359 48.17700195 C66.68724505 51.09847925 66.68724505 51.09847925 67.94677734 53.62231445 C70.62007068 58.81377521 70.62007068 58.81377521 75.19677734 62.05200195 C77.62142843 62.38319146 77.62142843 62.38319146 81.01318359 62.17700195 C81.01318359 67.12700195 81.01318359 72.07700195 81.01318359 77.17700195 C78.47035125 77.28572163 75.93223272 77.36462597 73.38818359 77.42700195 C72.67533203 77.46051758 71.96248047 77.4940332 71.22802734 77.52856445 C65.99797337 77.62452875 63.19018395 76.57818501 59.01318359 73.17700195 C56.15904333 70.2496786 54.33933346 67.89323446 52.63818359 64.1574707 C51.0045144 60.71451287 49.59204935 57.99545828 47.01318359 55.17700195 C42.05681911 53.79117636 38.24211247 53.97780466 33.01318359 54.17700195 C33.01318359 61.76700195 33.01318359 69.35700195 33.01318359 77.17700195 C27.67781555 77.26952279 22.34530088 77.34894475 17.00976562 77.39672852 C15.20009866 77.41667507 13.39049471 77.44384248 11.58105469 77.47875977 C-2.08723338 77.73565407 -14.08703698 77.38477108 -25.02197266 68.09106445 C-33.51377113 59.81873592 -37.79624418 50.23066608 -38.23681641 38.42700195 C-38.08297149 28.15016177 -34.00789011 18.836721 -27.20556641 11.16918945 C-19.71686008 4.07947158 -10.25917047 0.09506346 0 0 Z " fill="#FCFCFC" transform="translate(125.98681640625,256.822998046875)"/>
<path d="M0 0 C19.8 0 39.6 0 60 0 C60.495 3.465 60.495 3.465 61 7 C61.81404297 6.36771484 61.81404297 6.36771484 62.64453125 5.72265625 C63.35996094 5.17480469 64.07539063 4.62695312 64.8125 4.0625 C65.52019531 3.51722656 66.22789062 2.97195312 66.95703125 2.41015625 C71.3029622 -0.58961635 75.76221958 -0.12884849 80.82421875 -0.09765625 C82.11632011 -0.09553383 82.11632011 -0.09553383 83.43452454 -0.09336853 C86.18555169 -0.0877714 88.93649744 -0.07521946 91.6875 -0.0625 C93.5527332 -0.05748463 95.41796767 -0.05292179 97.28320312 -0.04882812 C101.85550011 -0.03780292 106.42773625 -0.02054027 111 0 C111.02685095 2.47923801 111.04676547 4.9581884 111.0625 7.4375 C111.07087891 8.14455078 111.07925781 8.85160156 111.08789062 9.58007812 C111.09653588 11.38693559 111.05220011 13.19387603 111 15 C109.06614609 16.93385391 105.43074267 16.18366646 102.7890625 16.2109375 C101.30207236 16.23900797 99.81509334 16.26767245 98.328125 16.296875 C95.9755893 16.33814756 93.6232607 16.37501948 91.27050781 16.40136719 C89.00541899 16.42895542 86.74128459 16.47482806 84.4765625 16.5234375 C83.42174179 16.5283168 83.42174179 16.5283168 82.34561157 16.53329468 C79.47581774 16.60563207 77.45011868 16.70269733 75.02099609 18.30712891 C73.25534276 21.23468516 74.24812744 23.81900073 75 27 C77.82879286 29.82879286 79.79924198 29.3142666 83.7578125 29.4140625 C84.42086395 29.43342865 85.08391541 29.4527948 85.76705933 29.4727478 C87.88624177 29.53255954 90.0054785 29.57893388 92.125 29.625 C93.56122169 29.66317845 94.99742045 29.70223011 96.43359375 29.7421875 C99.95561029 29.83990819 103.47738072 29.91945876 107 30 C107 35.28 107 40.56 107 46 C103.92945313 46.03867188 103.92945313 46.03867188 100.796875 46.078125 C98.80775005 46.11985489 96.81862535 46.16172403 94.82958984 46.20751953 C93.45048349 46.23569099 92.07121682 46.25692472 90.69189453 46.27099609 C88.70577051 46.29247545 86.72000091 46.34123132 84.734375 46.390625 C83.54038086 46.41157227 82.34638672 46.43251953 81.11621094 46.45410156 C77.42291362 47.1010941 76.17080635 47.97652143 74 51 C74.14281508 56.05692899 74.14281508 56.05692899 77 60 C79.57579385 60.24529581 82.05229007 60.37341793 84.6328125 60.4140625 C85.76056595 60.44311172 85.76056595 60.44311172 86.91110229 60.4727478 C89.31561899 60.53259147 91.72018344 60.57894726 94.125 60.625 C95.75392728 60.66317546 97.38283428 60.70222693 99.01171875 60.7421875 C103.00770777 60.8399487 107.00347734 60.91947621 111 61 C111 66.28 111 71.56 111 77 C105.59233876 77.09940554 100.18521772 77.17172051 94.77685547 77.21972656 C92.93984707 77.23975373 91.10290171 77.26698382 89.26611328 77.30175781 C86.61474998 77.35067065 83.96423459 77.37305763 81.3125 77.390625 C80.50071289 77.41127014 79.68892578 77.43191528 78.85253906 77.45318604 C72.05715206 77.45581746 66.89009564 75.53260994 61.7578125 71.03515625 C61.21898437 70.38417969 60.68015625 69.73320312 60.125 69.0625 C59.57070313 68.41410156 59.01640625 67.76570313 58.4453125 67.09765625 C54.52542202 61.4085179 54.20949893 55.71925908 55 49 C56.27716716 45.3733272 58.15676286 42.23975936 60.3125 39.0703125 C61.29352009 36.92697264 61.29352009 36.92697264 59.8828125 34.73828125 C59.30273438 33.93777344 58.72265625 33.13726562 58.125 32.3125 C54.9509462 27.43212116 54.02094566 23.75039512 55 18 C55.33 17.34 55.66 16.68 56 16 C50.72 16 45.44 16 40 16 C40.11792026 22.10569107 40.24214373 28.21120819 40.37231445 34.31665039 C40.41573334 36.39539057 40.45740312 38.47416803 40.49731445 40.55297852 C40.55484921 43.53413145 40.61859119 46.51509549 40.68359375 49.49609375 C40.70030624 50.43150497 40.71701874 51.3669162 40.73423767 52.33067322 C40.7641555 53.62189842 40.7641555 53.62189842 40.79467773 54.93920898 C40.81799416 56.08171364 40.81799416 56.08171364 40.84178162 57.24729919 C40.81379329 59.02735006 40.81379329 59.02735006 42 60 C43.68183948 60.23287008 45.3712416 60.41264166 47.0625 60.5625 C48.691875 60.706875 50.32125 60.85125 52 61 C52 66.28 52 71.56 52 77 C35.14261698 77.64836089 35.14261698 77.64836089 28.29296875 71.45703125 C21.81117007 64.56519178 20.54593613 57.15986846 20.70703125 48.03125 C20.71127609 47.11033569 20.71552094 46.18942139 20.71989441 45.24060059 C20.73655935 42.32675755 20.77418812 39.41363061 20.8125 36.5 C20.82756261 34.51303089 20.84124825 32.52605083 20.85351562 30.5390625 C20.88385898 25.6922169 20.94260249 20.84690094 21 16 C13.74 16 6.48 16 -1 16 C-0.67 10.72 -0.34 5.44 0 0 Z " fill="#00B95F" transform="translate(272,163)"/>
<path d="M0 0 C6.27 -0.061875 12.54 -0.12375 19 -0.1875 C21.94486328 -0.22846802 21.94486328 -0.22846802 24.94921875 -0.27026367 C26.5286396 -0.27903648 28.10806731 -0.28667853 29.6875 -0.29296875 C30.88922852 -0.3159906 30.88922852 -0.3159906 32.11523438 -0.33947754 C41.59915541 -0.3438253 47.95291083 3.0130162 54.7890625 9.5546875 C60.60710604 15.98948477 61.68213474 22.29094648 61.3828125 30.8515625 C60.45199143 38.50709086 56.72342677 44.88831092 51 50 C43.74872623 54.85591489 37.43680565 55.66369938 28.875 55.3125 C25.28625 55.209375 21.6975 55.10625 18 55 C18 62.26 18 69.52 18 77 C12.06 77 6.12 77 0 77 C0 51.59 0 26.18 0 0 Z " fill="#FDFDFD" transform="translate(351,257)"/>
<path d="M0 0 C5.35757563 3.71804997 9.07959025 9.21372276 10.3359375 15.62109375 C11.52341685 24.49822597 9.37104416 31.24510417 4.3359375 38.62109375 C-0.07366361 43.06937558 -5.18549387 45.36903592 -11.3515625 45.99609375 C-17.27656614 45.80568721 -22.90497348 43.85381568 -27.52734375 40.11328125 C-33.48780251 33.75348654 -35.34228259 25.95954489 -35.078125 17.3984375 C-34.17633266 11.34962285 -31.37615355 5.8363006 -26.8515625 1.68359375 C-17.74713645 -4.20750546 -9.68193456 -5.25803523 0 0 Z " fill="#000301" transform="translate(249.6640625,180.37890625)"/>
<path d="M0 0 C0 15.51 0 31.02 0 47 C-20.44186047 47 -20.44186047 47 -27.8671875 40.3203125 C-33.53954512 34.2137074 -34.48044381 28.13668249 -34.30859375 19.96875 C-33.58732562 13.02996796 -30.28977113 8.73154994 -25.07421875 4.32421875 C-15.94081402 -1.50671195 -11.9502496 0 0 0 Z " fill="#070707" transform="translate(141,272)"/>
<path d="M0 0 C10.23 0 20.46 0 31 0 C31 3.3 31 6.6 31 10 C34.63 10 38.26 10 42 10 C42 17.92 42 25.84 42 34 C37.05 34 32.1 34 27 34 C27 29.05 27 24.1 27 19 C18.09 19 9.18 19 0 19 C0 23.95 0 28.9 0 34 C-4.95 34 -9.9 34 -15 34 C-15 26.08 -15 18.16 -15 10 C-10.05 10 -5.1 10 0 10 C0 6.7 0 3.4 0 0 Z " fill="#02BF63" transform="translate(260,294)"/>
<path d="M0 0 C10.23 0 20.46 0 31 0 C31 6.27 31 12.54 31 19 C20.77 19 10.54 19 0 19 C0 12.73 0 6.46 0 0 Z " fill="#00BF63" transform="translate(234,266)"/>
<path d="M0 0 C4.021875 -0.0928125 4.021875 -0.0928125 8.125 -0.1875 C8.95789551 -0.21481201 9.79079102 -0.24212402 10.64892578 -0.27026367 C15.50534688 -0.32414665 18.83050747 0.24714514 23 3 C25.820631 5.86833723 26.43135748 7.95100643 26.4375 11.9375 C26.32450863 15.42482447 26.06225628 16.88932218 24.3125 20 C19.30300499 24.33253622 14.49190706 24.26133107 8.1875 24.125 C4.1346875 24.063125 4.1346875 24.063125 0 24 C0 16.08 0 8.16 0 0 Z " fill="#0B0B0B" transform="translate(159,272)"/>
<path d="M0 0 C9.9 0 19.8 0 30 0 C30 6.27 30 12.54 30 19 C20.1 19 10.2 19 0 19 C0 12.73 0 6.46 0 0 Z " fill="#00BF63" transform="translate(287,266)"/>
<path d="M0 0 C16.37363702 -0.57959777 16.37363702 -0.57959777 22 4 C24.971705 8.4575575 24.75294249 12.77413182 24 18 C22.34766078 21.17568542 20.24607029 23.37696485 17 25 C14.11426648 25.07199934 11.25934885 25.0927068 8.375 25.0625 C5.61125 25.041875 2.8475 25.02125 0 25 C0 16.75 0 8.5 0 0 Z " fill="#080808" transform="translate(369,272)"/>
</svg>
