<?xml version="1.0" encoding="UTF-8"?>
<svg version="1.1" xmlns="http://www.w3.org/2000/svg" width="500" height="500">
<path d="M0 0 C7.94672492 6.39193091 13.17190763 13.16215855 14.875 23.3125 C14.97084283 25.15646257 15.02010169 27.00320078 15.03271484 28.84960938 C15.04297699 29.93423462 15.05323914 31.01885986 15.06381226 32.13635254 C15.07111359 33.2979187 15.07841492 34.45948486 15.0859375 35.65625 C15.11399461 38.12370468 15.14265899 40.59115252 15.171875 43.05859375 C15.21320232 46.94286998 15.25009817 50.82701679 15.27636719 54.71142578 C15.30393616 58.46413385 15.34979416 62.21626391 15.3984375 65.96875 C15.40169037 67.13031616 15.40494324 68.29188232 15.40829468 69.48864746 C15.42486115 70.57327271 15.44142761 71.65789795 15.45849609 72.77539062 C15.46658295 73.72627563 15.4746698 74.67716064 15.48300171 75.65686035 C15.95191788 78.83358941 17.0025823 80.72296143 18.875 83.3125 C21.85072416 85.1135962 23.15935995 85.47892792 26.5625 84.6875 C29.3415163 83.03511193 29.78291029 82.3298428 30.875 79.3125 C31.08383632 76.58872517 31.18612104 73.9638359 31.19384766 71.23925781 C31.20389328 70.42912735 31.2139389 69.61899689 31.22428894 68.78431702 C31.25513466 66.11142677 31.2721599 63.43863676 31.2890625 60.765625 C31.30777303 58.91045265 31.32734636 57.05528881 31.3477478 55.20013428 C31.39908711 50.32087221 31.43870324 45.44158254 31.47589111 40.56219482 C31.51591945 35.58175825 31.56701714 30.60143666 31.6171875 25.62109375 C31.71396811 15.85164325 31.79836611 6.08212785 31.875 -3.6875 C36.18748609 -3.71636537 40.49994762 -3.73425255 44.8125 -3.75 C46.04419922 -3.75837891 47.27589844 -3.76675781 48.54492188 -3.77539062 C49.71474609 -3.77861328 50.88457031 -3.78183594 52.08984375 -3.78515625 C53.71587524 -3.79301147 53.71587524 -3.79301147 55.37475586 -3.80102539 C57.875 -3.6875 57.875 -3.6875 58.875 -2.6875 C59.0334265 -0.6166528 59.12624422 1.45928029 59.19140625 3.53515625 C59.23330078 4.79521484 59.27519531 6.05527344 59.31835938 7.35351562 C59.35817596 8.69400736 59.39788814 10.0345022 59.4375 11.375 C59.48068042 12.71941523 59.52429456 14.0638166 59.56835938 15.40820312 C59.67485358 18.7095234 59.7768646 22.01092236 59.875 25.3125 C60.46812988 24.40975342 60.46812988 24.40975342 61.07324219 23.48876953 C61.60079102 22.69067871 62.12833984 21.89258789 62.671875 21.0703125 C63.19104492 20.28285645 63.71021484 19.49540039 64.24511719 18.68408203 C71.17683884 8.59799094 80.31593947 1.4393712 91.875 -2.6875 C93.09123047 -3.13609375 93.09123047 -3.13609375 94.33203125 -3.59375 C111.02451695 -8.75194301 129.13855148 -6.69055211 144.5625 1 C151.81947891 5.17568479 157.86335161 10.63030215 162.875 17.3125 C162.875 10.3825 162.875 3.4525 162.875 -3.6875 C191.585 -3.6875 220.295 -3.6875 249.875 -3.6875 C250.8763988 -0.68330359 251.38921457 2.18959365 251.875 5.3125 C252.535 4.735 253.195 4.1575 253.875 3.5625 C263.03860404 -3.31020303 271.42678304 -3.83840827 282.6171875 -3.78515625 C283.74069611 -3.7837413 284.86420471 -3.78232635 286.02175903 -3.78086853 C289.59786683 -3.77528664 293.17391123 -3.76273741 296.75 -3.75 C299.17968659 -3.74498266 301.60937417 -3.74042016 304.0390625 -3.73632812 C309.98441888 -3.72617554 315.92963875 -3.70659645 321.875 -3.6875 C321.875 3.9025 321.875 11.4925 321.875 19.3125 C317.21503906 19.36857422 317.21503906 19.36857422 312.4609375 19.42578125 C309.44247514 19.47203094 306.42413509 19.52325214 303.40576172 19.57495117 C301.31273876 19.60814549 299.21962747 19.63619445 297.12646484 19.65893555 C294.11257388 19.69258231 291.09948837 19.74490393 288.0859375 19.80078125 C286.68871964 19.81036613 286.68871964 19.81036613 285.26327515 19.82014465 C280.06795775 19.93694377 276.37193125 20.41918465 271.875 23.3125 C269.64160788 26.03141215 269.87470599 27.30914828 270.1875 30.875 C270.79360221 34.27503117 270.79360221 34.27503117 271.875 37.3125 C277.42788547 39.59725064 283.71300988 39.59022396 289.62890625 39.5078125 C290.41522934 39.5049826 291.20155243 39.50215271 292.01170349 39.49923706 C294.48713359 39.48817289 296.96218199 39.46309591 299.4375 39.4375 C301.1308541 39.42745234 302.82421395 39.41832965 304.51757812 39.41015625 C308.63686253 39.38827898 312.75586689 39.35384718 316.875 39.3125 C317.04403281 41.85402902 317.21029427 44.39568988 317.375 46.9375 C317.42269531 47.65035156 317.47039062 48.36320312 317.51953125 49.09765625 C318.25514482 60.55221037 318.25514482 60.55221037 316.875 63.3125 C315.05125854 63.32651855 315.05125854 63.32651855 313.19067383 63.34082031 C308.67093545 63.38075418 304.15187532 63.44652254 299.63256836 63.52001953 C297.67823004 63.54820944 295.72377814 63.56943383 293.76928711 63.58349609 C290.95627777 63.60495307 288.14463129 63.65161695 285.33203125 63.703125 C284.02550346 63.70496796 284.02550346 63.70496796 282.69258118 63.70684814 C278.58646233 63.80553148 276.39831574 63.98572785 272.8425293 66.20605469 C270.48387744 68.73123749 269.95515269 69.86593422 269.875 73.3125 C270.71060557 78.25576779 270.71060557 78.25576779 273.81518555 81.99145508 C278.26251207 83.91154475 282.40904419 83.79223301 287.20703125 83.82421875 C288.19877853 83.84216995 289.19052582 83.86012115 290.21232605 83.87861633 C293.37067451 83.93266968 296.52887225 83.96659952 299.6875 84 C301.83270324 84.03317742 303.97788661 84.06766747 306.12304688 84.10351562 C311.37371903 84.19085756 316.62370834 84.25096971 321.875 84.3125 C321.875 92.2325 321.875 100.1525 321.875 108.3125 C314.2060639 108.26135671 306.53912338 108.198279 298.87084961 108.10498047 C296.26479591 108.07683489 293.65865786 108.05558864 291.05249023 108.04150391 C287.29627498 108.01998654 283.54106709 107.97328745 279.78515625 107.921875 C278.05024681 107.92003204 278.05024681 107.92003204 276.2802887 107.91815186 C265.84827284 107.73122571 257.49457127 104.56312361 249.875 97.3125 C242.60420778 88.4779232 240.78770782 79.61496928 241.875 68.3125 C243.50226406 61.89140398 246.349107 57.0898315 250.875 52.3125 C249.88865362 49.43565639 249.03754275 47.48552938 246.9375 45.25 C241.68821938 37.77375185 241.875 29.17380187 241.875 20.3125 C235.275 20.3125 228.675 20.3125 221.875 20.3125 C221.85237912 27.65802074 221.83404446 35.00352234 221.82318783 42.34907055 C221.81797636 45.76015203 221.81091032 49.17120837 221.79956055 52.58227539 C221.78658495 56.50667008 221.78175742 60.43105471 221.77734375 64.35546875 C221.76960182 66.18696724 221.76960182 66.18696724 221.76170349 68.0554657 C221.76162796 69.1962709 221.76155243 70.33707611 221.76147461 71.51245117 C221.759254 72.51394699 221.75703339 73.51544281 221.75474548 74.54728699 C221.87176619 77.23813953 222.27069646 79.69191825 222.875 82.3125 C226.03745541 83.3666518 228.74448218 83.62525672 232.0625 83.875 C234.9396875 84.0915625 234.9396875 84.0915625 237.875 84.3125 C237.875 91.9025 237.875 99.4925 237.875 107.3125 C214.14365395 107.98098862 214.14365395 107.98098862 203.5 99.0625 C195.28227434 91.17966599 192.92463143 82.24741113 192.55615234 71.05834961 C192.51496085 68.69399345 192.4836925 66.32944922 192.4609375 63.96484375 C192.43188828 62.0861837 192.43188828 62.0861837 192.4022522 60.16957092 C192.35288463 56.87024928 192.31149812 53.57095926 192.27410889 50.27148438 C192.23380977 46.89247999 192.1828369 43.51363755 192.1328125 40.13476562 C192.03712957 33.52744862 191.95198203 26.92005995 191.875 20.3125 C191.12814941 20.31773682 190.38129883 20.32297363 189.61181641 20.32836914 C186.24121943 20.34910401 182.87063586 20.36214899 179.5 20.375 C178.324375 20.38337891 177.14875 20.39175781 175.9375 20.40039062 C174.25527344 20.40522461 174.25527344 20.40522461 172.5390625 20.41015625 C170.98372803 20.41801147 170.98372803 20.41801147 169.39697266 20.42602539 C166.875 20.3125 166.875 20.3125 164.875 19.3125 C165.20113281 19.94414062 165.52726563 20.57578125 165.86328125 21.2265625 C169.5373972 28.748204 171.47999486 36.07715931 172.875 44.3125 C173.03097656 45.1890625 173.18695313 46.065625 173.34765625 46.96875 C175.59485002 62.87991511 169.08952895 77.69260166 159.875 90.3125 C150.70414792 101.93817613 136.68073845 107.66973571 122.40625 109.83984375 C105.29989639 111.55433189 89.07712057 108.09201695 75.37890625 97.484375 C69.42214462 92.31751156 64.71163262 86.57416961 60.78515625 79.74609375 C60.33462891 79.03646484 60.33462891 79.03646484 59.875 78.3125 C59.545 78.3125 59.215 78.3125 58.875 78.3125 C58.76285156 79.22128906 58.76285156 79.22128906 58.6484375 80.1484375 C57.23045676 89.18458926 53.73499372 96.28557601 46.625 102.1875 C36.23261644 109.45357975 26.29992163 110.62117097 13.875 109.3125 C5.58197842 107.69878059 -0.63356049 102.56339391 -6.125 96.3125 C-10.44229557 89.63851557 -12.23897457 83.50145266 -12.2668457 75.57592773 C-12.27388016 74.44803329 -12.28091461 73.32013885 -12.28816223 72.1580658 C-12.29232651 70.94961502 -12.29649078 69.74116425 -12.30078125 68.49609375 C-12.32396646 65.93293438 -12.34808325 63.36978329 -12.37304688 60.80664062 C-12.40948744 56.76863492 -12.43924972 52.73078574 -12.45092773 48.69262695 C-12.46293932 44.79349603 -12.50651721 40.89499566 -12.55078125 36.99609375 C-12.54887283 35.78561874 -12.54696442 34.57514374 -12.54499817 33.32798767 C-12.56148911 32.20324539 -12.57798004 31.07850311 -12.5949707 29.91967773 C-12.60083694 28.93104233 -12.60670319 27.94240692 -12.61274719 26.92381287 C-13.26880246 23.57943772 -14.48777898 22.40826409 -17.125 20.3125 C-20.21650707 18.96516556 -20.21650707 18.96516556 -23.75 20.375 C-24.86375 21.014375 -25.9775 21.65375 -27.125 22.3125 C-28.3394884 26.87967295 -28.29259451 31.54468714 -28.33032227 36.24560547 C-28.34517166 37.40271782 -28.34517166 37.40271782 -28.36032104 38.58320618 C-28.39173314 41.11533614 -28.41661261 43.64748482 -28.44140625 46.1796875 C-28.46199333 47.94231637 -28.48299025 49.70494049 -28.50437927 51.46755981 C-28.55941883 56.09362941 -28.60890757 60.71974221 -28.65722656 65.34588623 C-28.70757433 70.0717755 -28.76319092 74.79760248 -28.81835938 79.5234375 C-28.92571918 88.78640504 -29.02721287 98.0494268 -29.125 107.3125 C-33.43716481 107.50832583 -37.7497409 107.69277074 -42.0625 107.875 C-43.91004883 107.95911133 -43.91004883 107.95911133 -45.79492188 108.04492188 C-46.96474609 108.09326172 -48.13457031 108.14160156 -49.33984375 108.19140625 C-50.96587524 108.26210327 -50.96587524 108.26210327 -52.62475586 108.33422852 C-55.125 108.3125 -55.125 108.3125 -56.125 107.3125 C-56.24140669 104.72355239 -56.29300303 102.16092215 -56.30200195 99.57080078 C-56.31185875 98.35350533 -56.31185875 98.35350533 -56.32191467 97.11161804 C-56.34171317 94.41034866 -56.35333073 91.7091353 -56.36328125 89.0078125 C-56.36735678 88.08469143 -56.3714323 87.16157036 -56.37563133 86.21047592 C-56.3965296 81.31544974 -56.4108095 76.42045183 -56.42016602 71.52539062 C-56.43117991 66.48739349 -56.46551037 61.44984423 -56.50533772 56.41200447 C-56.53160758 52.52555574 -56.53986749 48.63921142 -56.54344749 44.75268173 C-56.54829436 42.89729699 -56.55985362 41.04191632 -56.57848549 39.1866188 C-56.69971298 26.30421631 -56.53324201 14.90110381 -47.02734375 5.09375 C-46.39957031 4.5059375 -45.77179688 3.918125 -45.125 3.3125 C-44.22974609 2.46171875 -44.22974609 2.46171875 -43.31640625 1.59375 C-30.6512677 -9.14923654 -13.63560892 -7.36322882 0 0 Z M89.875 28.3125 C83.00824105 39.62245593 81.24340702 50.47940863 83.9375 63.4375 C86.41141136 72.32056777 91.75401443 78.38720205 99.5546875 83.16015625 C103.2575419 84.99911593 106.78072717 85.85678963 110.875 86.3125 C111.60589844 86.395 112.33679688 86.4775 113.08984375 86.5625 C121.21164668 87.0192622 128.0714762 84.10728522 134.25 78.9375 C141.81359423 71.75436826 145.13468553 63.21295574 145.8671875 52.91015625 C145.89711931 42.95782777 142.74913815 34.05659435 136.27734375 26.4296875 C129.91259352 20.44110454 122.49784153 18.09337432 113.875 17.8125 C104.5961832 18.11474159 95.89628657 20.91072334 89.875 28.3125 Z " fill="#02BD62" transform="translate(118.125,127.6875)"/>
<path d="M0 0 C53.46 0 106.92 0 162 0 C162 37.29 162 74.58 162 113 C108.21 113 54.42 113 -1 113 C-1.020625 94.911875 -1.04125 76.82375 -1.0625 58.1875 C-1.071604 52.47203857 -1.08070801 46.75657715 -1.09008789 40.86791992 C-1.09460449 33.89904785 -1.09460449 33.89904785 -1.09544373 30.6386261 C-1.09698126 28.35708929 -1.1005023 26.0755533 -1.10557556 23.79402161 C-1.11286895 20.34207747 -1.11390687 16.89018308 -1.11352539 13.43823242 C-1.1171235 12.41850688 -1.12072161 11.39878134 -1.12442875 10.34815502 C-1.12305125 9.42040421 -1.12167376 8.49265341 -1.12025452 7.53678894 C-1.12117631 6.72837649 -1.1220981 5.91996405 -1.12304783 5.08705425 C-1 3 -1 3 0 0 Z " fill="#BEFE74" transform="translate(206,261)"/>
<path d="M0 0 C1.6985944 -0.00202824 3.39718795 -0.00494585 5.09577942 -0.00869751 C8.62798484 -0.01308207 12.1599603 -0.00681387 15.69213867 0.00732422 C20.18705289 0.02445353 24.68143094 0.01452661 29.1763258 -0.00339317 C32.6742192 -0.01430283 36.17198821 -0.01075266 39.66988564 -0.0030098 C41.32624693 -0.00102962 42.98262008 -0.0033889 44.63896751 -0.01044846 C60.80079592 -0.06426869 74.6425401 1.88333965 86.84765625 13.18359375 C95.10807698 22.12187343 96.46531286 32.31764285 96.20703125 43.96875 C95.72536557 53.50974428 91.10334095 61.53293572 84.17578125 68.00390625 C82.782616 69.17692511 81.34319622 70.29469276 79.89453125 71.3984375 C80.57699878 75.25952095 82.36361082 78.22611802 84.33203125 81.5859375 C85.25822266 83.18501953 85.25822266 83.18501953 86.203125 84.81640625 C87.63860718 87.48011375 87.63860718 87.48011375 89.89453125 88.3984375 C91.76509916 88.625939 93.64139083 88.80806561 95.51953125 88.9609375 C97.29328125 89.1053125 99.06703125 89.2496875 100.89453125 89.3984375 C100.89453125 96.6584375 100.89453125 103.9184375 100.89453125 111.3984375 C97.22705849 111.507014 93.56284319 111.58603608 89.89453125 111.6484375 C88.86457031 111.68195313 87.83460938 111.71546875 86.7734375 111.75 C78.70201635 111.85282065 73.47571243 110.38275515 67.26953125 105.2109375 C63.23341876 100.43133061 59.77357727 95.55463154 57.40234375 89.73828125 C55.00224357 83.97613823 55.00224357 83.97613823 50.89453125 79.3984375 C44.66496776 77.3708456 38.38066207 78.12818205 31.89453125 78.3984375 C31.89453125 89.2884375 31.89453125 100.1784375 31.89453125 111.3984375 C24.33571632 111.49083728 16.7789028 111.57030758 9.2199707 111.61816406 C6.65479856 111.63813777 4.08967111 111.66532627 1.5246582 111.70019531 C-19.81922861 111.98284075 -38.24935077 111.58182738 -54.85546875 96.3359375 C-66.75524654 83.61399324 -70.91851375 68.81699376 -70.3828125 51.73046875 C-69.60646097 36.90247674 -63.12596128 24.04315348 -52.3125 13.91015625 C-48.90893486 11.10551554 -45.26238654 8.928853 -41.35546875 6.8984375 C-40.7612915 6.58414795 -40.16711426 6.2698584 -39.55493164 5.94604492 C-27.19271758 0.05766351 -13.38729586 -0.05730253 0 0 Z M-34.10546875 32.3984375 C-40.98557212 40.75179641 -43.85852732 49.55835755 -43.10546875 60.3984375 C-41.98897849 69.50580805 -38.00069672 76.34409099 -31.10546875 82.3984375 C-19.46893032 91.06394484 -11.18451264 88.3984375 4.89453125 88.3984375 C4.89453125 66.9484375 4.89453125 45.4984375 4.89453125 23.3984375 C-16.63512288 22.71609486 -16.63512288 22.71609486 -34.10546875 32.3984375 Z M31.89453125 23.3984375 C31.89453125 33.9584375 31.89453125 44.5184375 31.89453125 55.3984375 C38.11296875 55.5221875 38.11296875 55.5221875 44.45703125 55.6484375 C45.75068604 55.68485352 47.04434082 55.72126953 48.37719727 55.75878906 C55.11521843 55.82362297 59.50058802 55.58623509 64.89453125 51.3984375 C68.4714689 47.07673966 69.50009136 43.12991569 69.21484375 37.5390625 C68.53908935 33.02304531 66.79177729 30.24846006 63.51953125 27.1484375 C59.05659181 24.17314454 55.51365709 23.14582653 50.15625 23.203125 C49.19420654 23.20812012 48.23216309 23.21311523 47.2409668 23.21826172 C45.4297937 23.24557373 45.4297937 23.24557373 43.58203125 23.2734375 C37.79671875 23.3353125 37.79671875 23.3353125 31.89453125 23.3984375 Z " fill="#FEFEFE" transform="translate(88.10546875,258.6015625)"/>
<path d="M0 0 C65.24 0 65.24 0 78.1015625 11.953125 C86.62008265 21.16037657 89.48888903 31.37915924 89.24609375 43.76171875 C88.45875479 54.12209962 83.86530827 63.70487895 76.25 70.8125 C64.96997872 79.88788714 52.90660148 81.35816499 38.8125 81.125 C35.244375 81.08375 31.67625 81.0425 28 81 C28 90.9 28 100.8 28 111 C18.76 111 9.52 111 0 111 C0 74.37 0 37.74 0 0 Z M28 23 C28 34.22 28 45.44 28 57 C31.67125 57.0825 35.3425 57.165 39.125 57.25 C40.2711377 57.28641602 41.41727539 57.32283203 42.59814453 57.36035156 C48.74754832 57.42720463 52.35660826 57.16017699 57 53 C60.99405627 48.35825893 62.24490608 44.02060785 62 38 C61.15983315 33.49218169 59.57875777 30.17715803 56.125 27.125 C49.89355284 22.88761593 45.03051817 22.74111359 37.6875 22.875 C34.490625 22.91625 31.29375 22.9575 28 23 Z " fill="#FEFEFE" transform="translate(394,259)"/>
<path d="M0 0 C14.52 0 29.04 0 44 0 C44 4.62 44 9.24 44 14 C49.28 14 54.56 14 60 14 C60 25.55 60 37.1 60 49 C52.74 49 45.48 49 38 49 C38 42.07 38 35.14 38 28 C25.46 28 12.92 28 0 28 C0 34.93 0 41.86 0 49 C-7.26 49 -14.52 49 -22 49 C-22 37.45 -22 25.9 -22 14 C-14.74 14 -7.48 14 0 14 C0 9.38 0 4.76 0 0 Z " fill="#04BD5F" transform="translate(264,313)"/>
<path d="M0 0 C6.24801086 -0.02290513 12.49587715 -0.04283339 18.74389648 -0.05493164 C20.87118014 -0.05997298 22.99846031 -0.06680591 25.12573242 -0.07543945 C28.17627826 -0.08751379 31.22677845 -0.09323014 34.27734375 -0.09765625 C35.71327126 -0.10539818 35.71327126 -0.10539818 37.1782074 -0.11329651 C38.49946373 -0.11340981 38.49946373 -0.11340981 39.84741211 -0.11352539 C40.62684677 -0.115746 41.40628143 -0.11796661 42.20933533 -0.12025452 C44 0 44 0 45 1 C45.08767112 3.07262076 45.10695873 5.14820294 45.09765625 7.22265625 C45.09515869 8.35711182 45.09266113 9.49156738 45.09008789 10.66040039 C45.08098389 12.11309326 45.07187988 13.56578613 45.0625 15.0625 C45.041875 19.661875 45.02125 24.26125 45 29 C30.15 29 15.3 29 0 29 C0 19.43 0 9.86 0 0 Z " fill="#0CC161" transform="translate(302,272)"/>
<path d="M0 0 C14.52 0 29.04 0 44 0 C44 9.24 44 18.48 44 28 C29.48 28 14.96 28 0 28 C0 18.76 0 9.52 0 0 Z " fill="#01BE61" transform="translate(227,273)"/>
<path d="M0 0 C8.58 0 17.16 0 26 0 C27.9230889 1.9230889 27.25321838 5.47070485 27.31640625 8.09765625 C27.33718735 8.80651474 27.35796844 9.51537323 27.37937927 10.24571228 C27.44494598 12.51787305 27.5037923 14.79015264 27.5625 17.0625 C27.60567849 18.59962183 27.64929255 20.1367315 27.69335938 21.67382812 C27.80063449 25.4490959 27.90188137 29.2244836 28 33 C27.01 33.495 27.01 33.495 26 34 C25.09183202 30.13792926 24.88356155 26.56851344 24.90234375 22.60546875 C24.90556641 21.40341797 24.90878906 20.20136719 24.91210938 18.96289062 C24.92048828 17.71701172 24.92886719 16.47113281 24.9375 15.1875 C24.94201172 13.92228516 24.94652344 12.65707031 24.95117188 11.35351562 C24.96293749 8.2356289 24.97937728 5.11783867 25 2 C23.53240234 2.01740234 23.53240234 2.01740234 22.03515625 2.03515625 C20.06869141 2.04869141 20.06869141 2.04869141 18.0625 2.0625 C16.77472656 2.07410156 15.48695313 2.08570312 14.16015625 2.09765625 C9.75941746 1.99435252 5.3750276 1.48611418 1 1 C1 28.06 1 55.12 1 83 C0.67 83 0.34 83 0 83 C0 55.61 0 28.22 0 0 Z " fill="#19A162" transform="translate(150,124)"/>
<path d="M0 0 C14.52 0 29.04 0 44 0 C44 9.24 44 18.48 44 28 C29.48 28 14.96 28 0 28 C0 18.76 0 9.52 0 0 Z M2 1 C2 9.25 2 17.5 2 26 C6.58345115 26.91669023 10.73305349 27.12903279 15.36328125 27.09765625 C16.15526413 27.0962413 16.94724701 27.09482635 17.76322937 27.09336853 C20.27969219 27.08779457 22.79606431 27.07524693 25.3125 27.0625 C27.02408725 27.05748163 28.73567591 27.05291931 30.44726562 27.04882812 C34.63154508 27.03783368 38.81575719 27.02058707 43 27 C43.02886751 22.85418113 43.04675327 18.70838784 43.0625 14.5625 C43.07506836 12.78649414 43.07506836 12.78649414 43.08789062 10.97460938 C43.09111328 9.84990234 43.09433594 8.72519531 43.09765625 7.56640625 C43.10289307 6.52427979 43.10812988 5.48215332 43.11352539 4.40844727 C43.27305556 2.04871253 43.27305556 2.04871253 42 1 C39.04294679 0.91131701 36.10934944 0.88479704 33.15234375 0.90234375 C32.2659169 0.9037587 31.37949005 0.90517365 30.46620178 0.90663147 C27.62326746 0.91224785 24.78041069 0.92480309 21.9375 0.9375 C20.01497509 0.94251289 18.09244896 0.94707616 16.16992188 0.95117188 C11.44656036 0.96137352 6.72336742 0.98094563 2 1 Z " fill="#23B94C" transform="translate(227,273)"/>
<path d="M0 0 C0.66 0 1.32 0 2 0 C2.01030746 0.70299728 2.02061493 1.40599457 2.03123474 2.1302948 C2.1293432 8.76579647 2.2318762 15.40121343 2.33933926 22.03657055 C2.39442775 25.44760718 2.44782454 28.85865257 2.49731445 32.26977539 C2.5543274 36.19425973 2.61877172 40.11860532 2.68359375 44.04296875 C2.70030624 45.26396774 2.71701874 46.48496674 2.73423767 47.7429657 C2.75418289 48.8837709 2.77412811 50.02457611 2.79467773 51.19995117 C2.81022202 52.20144699 2.8257663 53.20294281 2.84178162 54.23478699 C2.99501775 56.91292422 3.4046512 59.38784582 4 62 C7.16245541 63.0541518 9.86948218 63.31275672 13.1875 63.5625 C14.27417969 63.64628906 15.36085938 63.73007813 16.48046875 63.81640625 C17.31191406 63.87699219 18.14335937 63.93757813 19 64 C19 64.33 19 64.66 19 65 C15.01939223 66.17076699 11.08378283 67.25749403 7 68 C6.67 67.01 6.34 66.02 6 65 C3.88214887 63.88214887 3.88214887 63.88214887 1 63 C0.24569856 58.97464607 -0.12262138 55.17962065 -0.11352539 51.08642578 C-0.11344986 49.94569611 -0.11337433 48.80496643 -0.11329651 47.62966919 C-0.10555458 45.80591263 -0.10555458 45.80591263 -0.09765625 43.9453125 C-0.0962413 42.68862762 -0.09482635 41.43194275 -0.09336853 40.13717651 C-0.08873074 36.8130806 -0.0797618 33.48905458 -0.06866455 30.16497803 C-0.05839401 26.76624146 -0.05385887 23.36749765 -0.04882812 19.96875 C-0.03781699 13.31248083 -0.02109222 6.65624445 0 0 Z " fill="#21B16A" transform="translate(337,148)"/>
<path d="M0 0 C1.43836751 0.11458693 2.87570966 0.24209116 4.3125 0.375 C5.51326172 0.47941406 5.51326172 0.47941406 6.73828125 0.5859375 C9 1 9 1 12 3 C19.66612597 4.39494381 27.50863933 4.01891235 35.25 3.625 C36.09626953 3.58205811 36.94253906 3.53911621 37.81445312 3.49487305 C41.72744878 3.61662206 41.72744878 3.61662206 45 2 C46.99958364 1.95919217 49.00045254 1.95745644 51 2 C40.88334463 8.74443691 26.01595835 7.48091157 14.578125 5.74609375 C9.49595553 4.68638374 4.76559009 3.04098037 0 1 C0 0.67 0 0.34 0 0 Z " fill="#1EAC6A" transform="translate(204,231)"/>
<path d="M0 0 C21.78 0.495 21.78 0.495 44 1 C44 1.66 44 2.32 44 3 C29.48 3 14.96 3 0 3 C0 2.01 0 1.02 0 0 Z " fill="#A5FF84" transform="translate(264,310)"/>
<path d="M0 0 C0.33 0 0.66 0 1 0 C1 8.91 1 17.82 1 27 C-0.65 27 -2.3 27 -4 27 C-4 26.34 -4 25.68 -4 25 C-3.01 25 -2.02 25 -1 25 C-1.00523682 24.27820557 -1.01047363 23.55641113 -1.01586914 22.81274414 C-1.03657358 19.56267151 -1.04963918 16.31261272 -1.0625 13.0625 C-1.07087891 11.92619141 -1.07925781 10.78988281 -1.08789062 9.61914062 C-1.09111328 8.53955078 -1.09433594 7.45996094 -1.09765625 6.34765625 C-1.10289307 5.34742432 -1.10812988 4.34719238 -1.11352539 3.31665039 C-1 1 -1 1 0 0 Z " fill="#20AB6B" transform="translate(88,208)"/>
<path d="M0 0 C0.66 0 1.32 0 2 0 C2 8.91 2 17.82 2 27 C1.34 27 0.68 27 0 27 C-0.19622046 22.87536584 -0.38050216 18.75028427 -0.5625 14.625 C-0.61857422 13.449375 -0.67464844 12.27375 -0.73242188 11.0625 C-0.78076172 9.94101562 -0.82910156 8.81953125 -0.87890625 7.6640625 C-0.9260376 6.62717285 -0.97316895 5.5902832 -1.02172852 4.52197266 C-1 2 -1 2 0 0 Z " fill="#AFFE80" transform="translate(225,274)"/>
<path d="M0 0 C0.96099609 0.59748047 0.96099609 0.59748047 1.94140625 1.20703125 C6.85576818 4.21716948 11.63190525 6.89944118 17 9 C12.99788181 10.3340394 10.92036356 9.40012984 7 8 C5.375 6.5 5.375 6.5 4 5 C1.40084462 3.80972016 1.40084462 3.80972016 -1 3 C-0.67 2.01 -0.34 1.02 0 0 Z " fill="#12AD6B" transform="translate(210,205)"/>
<path d="M0 0 C1.32 0.66 2.64 1.32 4 2 C2.87970983 3.48273699 1.75361382 4.96108886 0.625 6.4375 C-0.31472656 7.67306641 -0.31472656 7.67306641 -1.2734375 8.93359375 C-3 11 -3 11 -5 12 C-5.25 9.1875 -5.25 9.1875 -5 6 C-3.0625 4.3125 -3.0625 4.3125 -1 3 C-0.67 2.01 -0.34 1.02 0 0 Z " fill="#16B56B" transform="translate(278,210)"/>
<path d="M0 0 C1.258125 0.12375 2.51625 0.2475 3.8125 0.375 C4.87404297 0.47941406 4.87404297 0.47941406 5.95703125 0.5859375 C8 1 8 1 11 3 C11 3.66 11 4.32 11 5 C12.32 5.33 13.64 5.66 15 6 C15 6.66 15 7.32 15 8 C16.32 8.33 17.64 8.66 19 9 C18.01 9.99 17.02 10.98 16 12 C15.20335937 10.86498047 15.20335937 10.86498047 14.390625 9.70703125 C11.71230138 6.67422362 9.39656566 5.39187308 5.75 3.6875 C4.67234375 3.17574219 3.5946875 2.66398438 2.484375 2.13671875 C1.66453125 1.76160156 0.8446875 1.38648438 0 1 C0 0.67 0 0.34 0 0 Z " fill="#19AB69" transform="translate(240,146)"/>
<path d="M0 0 C5.19822672 1.36144033 8.09543873 3.46730171 12 7 C8.23375329 8.25541557 6.62811066 7.37061958 3 6 C3 5.34 3 4.68 3 4 C2.01 3.67 1.02 3.34 0 3 C0 2.01 0 1.02 0 0 Z " fill="#12B762" transform="translate(259,128)"/>
<path d="M0 0 C4.15422634 3.69264564 7.27087259 7.63296818 9 13 C8.67 13.99 8.34 14.98 8 16 C5 10.25 5 10.25 5 8 C4.01 7.67 3.02 7.34 2 7 C0.81480735 4.56723614 0 2.71982714 0 0 Z " fill="#16AC6A" transform="translate(123,133)"/>
<path d="M0 0 C0.66 0.33 1.32 0.66 2 1 C1.67 2.65 1.34 4.3 1 6 C0.34 6 -0.32 6 -1 6 C-1.061875 6.598125 -1.12375 7.19625 -1.1875 7.8125 C-2.34270543 10.92266847 -4.06877187 11.60417708 -7 13 C-7.99 13 -8.98 13 -10 13 C-9.44570312 12.39671875 -8.89140625 11.7934375 -8.3203125 11.171875 C-7.59585938 10.37265625 -6.87140625 9.5734375 -6.125 8.75 C-5.04605469 7.56664062 -5.04605469 7.56664062 -3.9453125 6.359375 C-2.23064517 4.27973832 -1.07019127 2.45580733 0 0 Z " fill="#17AD67" transform="translate(260,195)"/>
<path d="M0 0 C0.66 0.33 1.32 0.66 2 1 C1.67 1.66 1.34 2.32 1 3 C1.66 3 2.32 3 3 3 C1.84414715 6.91211733 0.64465038 9.8745041 -2 13 C-2.625 9.625 -2.625 9.625 -3 6 C-2.34 5.34 -1.68 4.68 -1 4 C-0.3574765 1.93125966 -0.3574765 1.93125966 0 0 Z " fill="#12B268" transform="translate(284,198)"/>
<path d="M0 0 C1.65 0 3.3 0 5 0 C4.67 0.99 4.34 1.98 4 3 C3.93197033 4.72795352 3.91504355 6.45835365 3.9375 8.1875 C3.95103516 9.53908203 3.95103516 9.53908203 3.96484375 10.91796875 C3.97644531 11.60503906 3.98804688 12.29210937 4 13 C3.34 13 2.68 13 2 13 C1.66127487 11.58461283 1.32925376 10.16762037 1 8.75 C0.814375 7.96109375 0.62875 7.1721875 0.4375 6.359375 C0 4 0 4 0 0 Z " fill="#16B066" transform="translate(360,154)"/>
<path d="M0 0 C0.66 0 1.32 0 2 0 C2 0.99 2 1.98 2 3 C2.66 3.33 3.32 3.66 4 4 C3.38125 4.28875 2.7625 4.5775 2.125 4.875 C-0.13325765 5.93720042 -0.13325765 5.93720042 -2 8 C-5.125 8.125 -5.125 8.125 -8 8 C-7 6 -7 6 -4.5625 5.125 C-1.86394485 4.22949848 -1.86394485 4.22949848 -0.6875 1.875 C-0.460625 1.25625 -0.23375 0.6375 0 0 Z " fill="#13B269" transform="translate(149,207)"/>
<path d="M0 0 C1.32 0.66 2.64 1.32 4 2 C2.576875 2.804375 2.576875 2.804375 1.125 3.625 C-2.36739592 6.2792209 -3.04735876 7.80837855 -4 12 C-4.33 12 -4.66 12 -5 12 C-5 9.03 -5 6.06 -5 3 C-3.68 3 -2.36 3 -1 3 C-0.67 2.01 -0.34 1.02 0 0 Z " fill="#16AD69" transform="translate(391,146)"/>
<path d="M0 0 C5.75 1.875 5.75 1.875 8 3 C8 3.66 8 4.32 8 5 C8.99 5 9.98 5 11 5 C11.66 6.32 12.32 7.64 13 9 C7.97290493 7.42903279 3.97133531 4.38006951 0 1 C0 0.67 0 0.34 0 0 Z " fill="#1BAC69" transform="translate(191,222)"/>
<path d="M0 0 C0.66 0 1.32 0 2 0 C2.66 2.64 3.32 5.28 4 8 C4.99 8 5.98 8 7 8 C7.33 9.98 7.66 11.96 8 14 C4.32770991 10.62546316 1.91051157 7.62544907 0 3 C0 2.01 0 1.02 0 0 Z " fill="#1CA967" transform="translate(313,211)"/>
<path d="M0 0 C1.04794275 3.14382824 1.00520947 4.87203439 0.6875 8.125 C0.60886719 9.01445312 0.53023437 9.90390625 0.44921875 10.8203125 C0.22685547 11.89925781 0.22685547 11.89925781 0 13 C-0.99 13.495 -0.99 13.495 -2 14 C-2.05389087 12.04196493 -2.09274217 10.08351091 -2.125 8.125 C-2.14820313 7.03445312 -2.17140625 5.94390625 -2.1953125 4.8203125 C-2 2 -2 2 0 0 Z " fill="#1BAB70" transform="translate(201,171)"/>
<path d="M0 0 C0.66 0.33 1.32 0.66 2 1 C-0.75520215 3.95929119 -3.46627288 6.03681826 -7 8 C-7.33 7.01 -7.66 6.02 -8 5 C-6.71475739 4.13619741 -5.42157581 3.28419631 -4.125 2.4375 C-3.04605469 1.72400391 -3.04605469 1.72400391 -1.9453125 0.99609375 C-1.30335938 0.66738281 -0.66140625 0.33867188 0 0 Z " fill="#12B166" transform="translate(205,127)"/>
<path d="M0 0 C0.99 0.33 1.98 0.66 3 1 C3 2.65 3 4.3 3 6 C3.66 6 4.32 6 5 6 C5.66 7.98 6.32 9.96 7 12 C1.33064516 6.62903226 1.33064516 6.62903226 0 3 C0 2.01 0 1.02 0 0 Z " fill="#1AA966" transform="translate(108,214)"/>
<path d="M0 0 C1.79158489 -0.02696365 3.58328473 -0.04637917 5.375 -0.0625 C6.37273437 -0.07410156 7.37046875 -0.08570312 8.3984375 -0.09765625 C11 0 11 0 13 1 C13 1.66 13 2.32 13 3 C11.02 3.33 9.04 3.66 7 4 C6.67 3.34 6.34 2.68 6 2 C2.97065509 1.34227572 2.97065509 1.34227572 0 1 C0 0.67 0 0.34 0 0 Z " fill="#1AB165" transform="translate(94,122)"/>
<path d="M0 0 C0 4.31618166 -2.13270348 5.92789659 -5 9 C-5.66 9 -6.32 9 -7 9 C-6.67 7.68 -6.34 6.36 -6 5 C-5.01 5 -4.02 5 -3 5 C-2.690625 4.360625 -2.38125 3.72125 -2.0625 3.0625 C-1 1 -1 1 0 0 Z " fill="#22A96A" transform="translate(171,220)"/>
<path d="M0 0 C0.33 0.99 0.66 1.98 1 3 C-1.3125 5.0625 -1.3125 5.0625 -4 7 C-4.99 6.67 -5.98 6.34 -7 6 C-4.69 4.02 -2.38 2.04 0 0 Z " fill="#15B261" transform="translate(195,133)"/>
<path d="M0 0 C0.99 0.33 1.98 0.66 3 1 C2.67 3.31 2.34 5.62 2 8 C1.34 8 0.68 8 0 8 C0 5.36 0 2.72 0 0 Z " fill="#07B05F" transform="translate(361,147)"/>
<path d="M0 0 C0.33 0.66 0.66 1.32 1 2 C-1.64 4.31 -4.28 6.62 -7 9 C-7.66 8.67 -8.32 8.34 -9 8 C-7.87811441 6.85111717 -6.75238316 5.70598863 -5.625 4.5625 C-4.99851562 3.92441406 -4.37203125 3.28632813 -3.7265625 2.62890625 C-2 1 -2 1 0 0 Z " fill="#1CA968" transform="translate(78,127)"/>
<path d="M0 0 C2.475 0.495 2.475 0.495 5 1 C4.34 2.98 3.68 4.96 3 7 C0.64046906 4.64046906 0.50858587 3.22104383 0 0 Z " fill="#15B066" transform="translate(361,211)"/>
<path d="M0 0 C0 0.66 0 1.32 0 2 C-0.66 2 -1.32 2 -2 2 C-2 2.99 -2 3.98 -2 5 C-4.4375 4.625 -4.4375 4.625 -7 4 C-7.33 3.34 -7.66 2.68 -8 2 C-6.68 2.33 -5.36 2.66 -4 3 C-4 2.34 -4 1.68 -4 1 C-2 0 -2 0 0 0 Z " fill="#12AF62" transform="translate(384,228)"/>
<path d="M0 0 C0.66 0.33 1.32 0.66 2 1 C2 1.66 2 2.32 2 3 C3.32 3.33 4.64 3.66 6 4 C6 4.66 6 5.32 6 6 C3.64828869 5.40138258 1.3140622 4.73075648 -1 4 C-1.33 3.34 -1.66 2.68 -2 2 C-1.34 2 -0.68 2 0 2 C0 1.34 0 0.68 0 0 Z " fill="#0CBE50" transform="translate(388,162)"/>
</svg>
